<?xml version="1.0" encoding="utf-8"?>
<!-- Generator: Adobe Illustrator 24.1.2, SVG Export Plug-In . SVG Version: 6.00 Build 0)  -->
<svg version="1.1" xmlns="http://www.w3.org/2000/svg" xmlns:xlink="http://www.w3.org/1999/xlink" x="0px" y="0px"
	 viewBox="0 0 540.8 372.1" style="enable-background:new 0 0 540.8 372.1;" xml:space="preserve">
<style type="text/css">
	.st0{fill:#FFFFFF;stroke:#000000;}
	.st1{fill:#CFDEE2;}
	.st2{fill:none;}
	.st3{fill:none;stroke:#000000;}
	.st4{fill:#D4D2D2;stroke:#000000;}
	.st5{font-family:'HelveticaNeue';}
	.st6{font-size:9px;}
	.st7{fill:#EF9D30;stroke:#000000;}
	.st8{fill:none;stroke:#000000;stroke-linecap:round;}
	.st9{fill:#5AC1A4;stroke:#000000;}
	.st10{fill:#5AC1A4;}
	.st11{fill:#FFE850;stroke:#000000;}
	.st12{fill:#606060;}
	.st13{font-size:7px;}
	.st14{font-family:'HelveticaNeue-Medium';}
	.st15{font-size:11px;}
	.st16{font-size:6px;}
	.st17{fill:#929090;}
	.st18{fill:none;stroke:#117DA8;stroke-miterlimit:10;}
	.st19{fill:#117DA8;}
	.st20{fill:#CFF2FF;stroke:#117DA8;stroke-miterlimit:10;}
	.st21{enable-background:new    ;}
	.st22{fill:#EF9D30;}
	.st23{fill:#EF9D30;stroke:#000000;stroke-width:0.7;}
	.st24{fill:#5AC1A4;stroke:#000000;stroke-width:0.7;}
	.st25{font-size:8px;}
</style>
<g id="Layer_1">
	<rect x="13.2" y="148.8" class="st0" width="514.1" height="156.1"/>
	<g transform="translate(0 8)">
		<g>
			<path class="st1" d="M526.9,187.8v108.7H12.7V185.1l5.4,1c10.6-1,15.7-8,15.7-8l0.2,0.2c0,0,3.2,10.8,14.5,10.3
				c11.3-0.4,18.4-11.1,18.4-11.1s3.2,9.6,16.8,9.1c13.6-0.5,15-8,15-8s3.9,9.6,16,9.1c12.1-0.5,16.5-9.2,16.5-9.2s3.9,8.4,14.5,7.5
				c10.6-1,15.7-8,15.7-8s3.1,8.9,11.6,8.9s16-8.4,16-8.4s3.2,10.8,14.5,10.3c11.3-0.4,18.4-11.1,18.4-11.1s3.2,9.6,16.8,9.1
				s15-8,15-8s3.9,9.6,16,9.1c12.1-0.5,16.5-9.2,16.5-9.2s3.9,8.4,14.5,7.5c10.6-1,15.7-8,15.7-8l0.2,0.2c0,0,3.2,10.8,14.5,10.3
				c11.3-0.4,18.4-11.1,18.4-11.1s3.2,9.6,16.8,9.1s15-8,15-8s4,9.6,16,9.1c12.1-0.5,16.5-9.2,16.5-9.2s3.9,8.4,14.5,7.5
				c10.6-1,15.7-5.7,15.7-5.7s5,9,16.3,8.5c11.3-0.4,18.4-11.1,18.4-11.1s3.2,9.6,16.8,9.1s15-8,15-8S514.8,188.3,526.9,187.8"/>
		</g>
	</g>
	<rect x="13.2" y="268.8" class="st2" width="514.1" height="36.1"/>
	<rect x="13.2" y="148.8" class="st3" width="514.1" height="156.1"/>
	<line class="st2" x1="137" y1="279.2" x2="155" y2="268.7"/>
	<path class="st2" d="M23.3,310.1c0,0,7.4-8.9,20.8-8.9s20.9,8.9,42.1,8.9s29.8-19,47.7-28.9"/>
	<path class="st4" d="M440.8,279.1H161.5v-60.4h279.3c16.7,0,30.2,13.5,30.2,30.2l0,0C471,265.6,457.5,279.1,440.8,279.1z"/>
	<polygon class="st0" points="41.1,256.5 161.5,279.1 161.5,218.7 41.1,241.3 	"/>
	<polygon class="st0" points="141.7,222.4 130.3,224.4 131,170.8 142.2,167.8 	"/>
	<text transform="matrix(1 0 0 1 131.2485 241)" class="st5 st6">HW</text>
	<text transform="matrix(1 0 0 1 131.2485 254)" class="st5 st6">SW</text>
	<text transform="matrix(1 0 0 1 131.2485 267)" class="st5 st6">OT</text>
	<circle class="st0" cx="153.2" cy="238" r="4"/>
	<circle class="st0" cx="153.2" cy="251" r="4"/>
	<circle class="st0" cx="153.2" cy="264" r="4"/>
	<rect x="171" y="269.4" class="st7" width="24.4" height="9.5"/>
	<g>
		<line class="st8" x1="361.6" y1="243.2" x2="361.6" y2="254.7"/>
		<line class="st8" x1="354.8" y1="255.4" x2="368.4" y2="255.4"/>
		<line class="st8" x1="356.2" y1="257.6" x2="367.1" y2="257.6"/>
		<line class="st8" x1="357.5" y1="259.8" x2="365.7" y2="259.8"/>
	</g>
	<line class="st8" x1="358.8" y1="262" x2="364.4" y2="262"/>
	<circle class="st9" cx="61.8" cy="248.6" r="8.1"/>
	<g>
		<circle class="st9" cx="195.2" cy="228.4" r="4"/>
		<circle class="st9" cx="205.2" cy="228.4" r="4"/>
		<circle class="st9" cx="215.2" cy="228.4" r="4"/>
		<circle class="st9" cx="225.2" cy="228.4" r="4"/>
		<circle class="st9" cx="235.2" cy="228.4" r="4"/>
		<circle class="st9" cx="245.2" cy="228.4" r="4"/>
		<circle class="st7" cx="255.2" cy="228.4" r="4"/>
	</g>
	<circle class="st10" cx="321.2" cy="170" r="2"/>
	<circle class="st2" cx="321.2" cy="180.5" r="1.6"/>
	<circle class="st9" cx="24.7" cy="282.5" r="2"/>
	<circle class="st9" cx="24.7" cy="293" r="2"/>
	<rect x="147.7" y="170" class="st11" width="24.4" height="11.5"/>
	<rect x="146.4" y="199.2" class="st11" width="26.4" height="11.3"/>
	<rect x="294" y="208.7" class="st9" width="26.9" height="10.2"/>
	<rect x="222.5" y="248.8" class="st9" width="25.5" height="10.5"/>
	<rect x="222.5" y="236.9" class="st9" width="25.5" height="10.5"/>
	<rect x="171" y="269.4" class="st7" width="24.4" height="9.5"/>
	<rect x="146.4" y="199.2" class="st11" width="26.4" height="11.3"/>
	<rect x="222.5" y="236.9" class="st9" width="25.5" height="10.5"/>
	<rect x="366.2" y="241" class="st9" width="24.4" height="10.5"/>
	<polygon class="st0" points="428.2,274.3 439.7,274.3 445.2,282.8 427.8,282.8 	"/>
	
		<ellipse transform="matrix(0.1602 -0.9871 0.9871 0.1602 51.1063 630.9483)" class="st2" cx="396.3" cy="285.4" rx="5.9" ry="5.9"/>
	<circle class="st0" cx="430.2" cy="233.8" r="4.1"/>
	<circle class="st0" cx="430.6" cy="246.5" r="4.1"/>
	<text transform="matrix(1 0 0 1 427.2485 259)" class="st12 st5 st13">na</text>
	<text transform="matrix(1 0 0 1 368.2485 173)" class="st12 st5 st6">profile_station - 11:28 • 18Jul20</text>
	<text transform="matrix(1 0 0 1 148.4957 208.3249)" class="st5 st6">11:31</text>
	<text transform="matrix(1 0 0 1 148.4963 179.1254)" class="st5 st6">11:32</text>
	<text transform="matrix(1 0 0 1 296.349 216.6799)" class="st5 st6">11:28</text>
	<text transform="matrix(1 0 0 1 484.2485 237)" class="st5 st6">226°</text>
	<text transform="matrix(1 0 0 1 484.2485 263.3205)" class="st5 st6">0.7km/hr</text>
	<text transform="matrix(1 0 0 1 81.2485 285.3899)" class="st5 st6">12:32 - in 42m</text>
	<text transform="matrix(1 0 0 1 81.2485 296.1899)" class="st5 st6">15:28 - in 3h 38m</text>
	<text transform="matrix(1 0 0 1 225.2485 178.2224)" class="st12 st5 st13">17m ago</text>
	<text transform="matrix(1 0 0 1 71.2485 208.6039)" class="st5 st6">15:35</text>
	<text transform="matrix(1 0 0 1 71.2485 218.2224)" class="st12 st5 st13">20h 14m ago</text>
	<text transform="matrix(1 0 0 1 228.2485 208.2224)" class="st12 st5 st13">18m ago</text>
	<text transform="matrix(1 0 0 1 224.2485 244.9931)" class="st5 st6">16.3</text>
	<text transform="matrix(1 0 0 1 224.2485 257.4917)" class="st5 st6">338.0</text>
	<text transform="matrix(1 0 0 1 216.2485 267)" class="st12 st5 st13">5h 41m ago</text>
	<text transform="matrix(1 0 0 1 225.8867 286.9345)" class="st12 st5 st13">20:55</text>
	<text transform="matrix(1 0 0 1 365.6114 237.9936)" class="st12 st5 st13">2h 13m ago</text>
	<text transform="matrix(1 0 0 1 367.2485 213.5)" class="st12 st5 st13">21m ago</text>
	<text transform="matrix(1 0 0 1 368.2485 249.4973)" class="st5 st6">OK</text>
	<text transform="matrix(1 0 0 1 84.3097 257)" class="st12 st5 st13">1.0m/s</text>
	<text transform="matrix(1 0 0 1 286.2485 241.7336)" class="st14 st15">BRIZO</text>
	<text transform="matrix(1 0 0 1 292.2485 267)" class="st14 st15">11:50</text>
	<text transform="matrix(1 0 0 1 485.2485 281)" class="st12 st5 st16">0.4km in 0.6h</text>
	<text transform="matrix(1 0 0 1 325.2485 173)" class="st5 st6">MISSION:</text>
	<text transform="matrix(1 0 0 1 290.2485 255)" class="st12 st5 st13">UPDATED:</text>
	<g>
		<circle cx="195.2" cy="228.4" r="2"/>
		<circle cx="215.2" cy="228.4" r="2"/>
		<circle cx="235.2" cy="228.4" r="2"/>
		<circle cx="255.2" cy="228.4" r="2"/>
		<text transform="matrix(1 0 0 1 171.2485 229)" class="st12 st5 st13">BAD</text>
		<text transform="matrix(1 0 0 1 171.2485 236)" class="st12 st5 st13">CELL</text>
	</g>
	<text transform="matrix(1 0 0 1 485.2485 274)" class="st12 st5 st16">reckoned</text>
	<text transform="matrix(1 0 0 1 85.2485 262)" class="st12 st5 st16">command</text>
	<text transform="matrix(1 0 0 1 194.8885 245.2642)" class="st5 st6">Volts:</text>
	<text transform="matrix(1 0 0 1 191.0276 257.4165)" class="st5 st6">AmpH:</text>
	<text transform="matrix(1 0 0 1 171.2485 287)" class="st12 st5 st13">DROP WEIGHT</text>
	<text transform="matrix(1 0 0 1 29.7938 285.3899)" class="st5 st6">NextComm:</text>
	<text transform="matrix(1 0 0 1 29.2485 296.1899)" class="st5 st6">Timeout: </text>
	<g>
		<text transform="matrix(1 0 0 1 371.2485 260)" class="st12 st5 st13">GROUND</text>
		<text transform="matrix(1 0 0 1 371.2485 268)" class="st12 st5 st13">FAULT</text>
	</g>
	<text transform="matrix(1 0 0 1 426.3441 270.4494)" class="st5 st6">DVL</text>
	<text transform="matrix(1 0 0 1 325.5999 213.8654)" class="st5 st6">Last GPS</text>
	<text transform="matrix(1 0 0 1 175.7026 178.2224)" class="st5 st6">Sat comms</text>
	<text transform="matrix(1 0 0 1 177.8984 208.6039)" class="st5 st6">Cell comms</text>
	<text transform="matrix(1 0 0 1 30.2485 208.6039)" class="st5 st6">Log start:</text>
	<text transform="matrix(1 0 0 1 80.2152 247.552)" class="st5 st6">Thruster</text>
	<g>
		<rect x="480.4" y="243.2" class="st17" width="11.7" height="7"/>
		<g>
			<polygon class="st17" points="504.5,246.7 487.1,253.9 491.2,246.7 487.1,239.6 			"/>
		</g>
	</g>
	<path class="st18" d="M316.3,170c-32.4,0-25.6-33.1-18.2-38.6"/>
	<g>
		<g>
			<path class="st18" d="M364.2,247.3c-9.1,4.1-24.4,12.4-24.4,37.2"/>
			<g>
				<path class="st19" d="M363,244.9c1.3-0.6,2.9,0,3.5,1.3c0.6,1.3,0,2.9-1.3,3.5c-1.3,0.6-2.9,0-3.5-1.3
					C361,247.1,361.6,245.5,363,244.9z"/>
			</g>
		</g>
	</g>
	<circle class="st18" cx="320.9" cy="170" r="5.1"/>
</g>
<g id="Layer_2">
	<rect x="433.6" y="316.6" class="st20" width="93.4" height="34.6"/>
	<rect x="316.9" y="284.5" class="st20" width="51.5" height="45.6"/>
	<rect x="298" y="108.4" class="st20" width="212.5" height="35.4"/>
	<rect x="365.7" y="152.8" class="st20" width="61.5" height="10.8"/>
	<rect x="430.8" y="174.8" class="st20" width="79.1" height="10.8"/>
	<rect x="437.2" y="213.2" class="st20" width="83.3" height="10.8"/>
	<rect x="391.3" y="284.5" class="st20" width="65.9" height="10.8"/>
	<text transform="matrix(1 0 0 1 434.6486 183.2374)" class="st19 st5 st6">Mission start time</text>
	<text transform="matrix(1 0 0 1 27.5493 131.7537)" class="st19 st5 st15">LEGEND FOR AUV DISPLAY WIDGET</text>
	<text transform="matrix(1 0 0 1 440.2325 325.0047)" class="st21"><tspan x="0" y="0" class="st19 st5 st6">Speed and Heading</tspan><tspan x="0" y="10.8" class="st19 st5 st6">estimated from last</tspan><tspan x="0" y="21.6" class="st19 st5 st6">two GPS fixes</tspan></text>
	<text transform="matrix(1 0 0 1 368.3982 161.749)" class="st19 st5 st6">Mission name</text>
	<text transform="matrix(1 0 0 1 394.8167 292.8898)" class="st19 st5 st6">Not set up yet</text>
	<rect x="347.8" y="220.4" class="st20" width="63" height="10.8"/>
	<text transform="matrix(1 0 0 1 351.7762 228.7669)" class="st19 st5 st6">Last GF scan</text>
	<text transform="matrix(1 0 0 1 439.3318 221.6049)" class="st19 st5 st6">UBAT on &amp; flow OK</text>
	<text transform="matrix(1 0 0 1 309.5522 118.7198)" class="st19 st5 st6">Mission found in default list</text>
	<text transform="matrix(1 0 0 1 309.5522 130.1555)" class="st21"><tspan x="0" y="0" class="st19 st5 st6">Mission not in default list </tspan><tspan x="0" y="10.8" class="st19 st5 st6">  (mission timeout, nextcomm, speed not reliable) </tspan></text>
	<circle class="st10" cx="304.2" cy="115.5" r="2"/>
	<circle class="st22" cx="304.2" cy="127.4" r="2"/>
	<rect x="15.8" y="312" class="st20" width="212.5" height="39.1"/>
	<text transform="matrix(1 0 0 1 27.2901 322.2888)" class="st19 st5 st6">Predicted next comm and Mission Timeout:</text>
	<circle class="st9" cx="30.7" cy="331.7" r="2"/>
	<circle class="st11" cx="95.3" cy="331.7" r="2"/>
	<circle class="st7" cx="162.9" cy="331.7" r="2"/>
	<rect x="326.7" y="320.1" class="st23" width="38.1" height="8.4"/>
	<rect x="326.7" y="307.9" class="st11" width="38.1" height="10"/>
	<rect x="326.7" y="296.3" class="st24" width="38.1" height="9.2"/>
	<text transform="matrix(1 0 0 1 320.3983 292.8898)" class="st21"><tspan x="0" y="0" class="st19 st5 st6">GF:   </tspan><tspan x="0" y="11.2" class="st19 st5 st6">    </tspan><tspan x="10" y="11.2" class="st19 st5 st25">ok </tspan><tspan x="0" y="22.4" class="st19 st5 st25">    medium</tspan><tspan x="0" y="33.6" class="st19 st5 st25">    high</tspan></text>
	<g>
		<g>
			<path class="st18" d="M478.5,269.2c-6.7,8.8-7,45.6,1.2,47.3"/>
			<g>
				<path class="st19" d="M476.7,267.4c1.1-1,2.7-0.9,3.7,0.2s0.9,2.7-0.2,3.7c-1.1,1-2.7,0.9-3.7-0.2
					C475.5,270,475.6,268.3,476.7,267.4z"/>
			</g>
		</g>
	</g>
	<g>
		<g>
			<path class="st18" d="M71.7,297.5c-1.5,3.9-11.1,9.3-14.2,14.5"/>
			<g>
				<path class="st19" d="M69,298c-0.2-1.4,0.8-2.8,2.2-3c1.4-0.2,2.8,0.8,3,2.2c0.2,1.4-0.8,2.8-2.2,3
					C70.6,300.4,69.2,299.4,69,298z"/>
			</g>
		</g>
	</g>
	<g>
		<g>
			<path class="st18" d="M436.4,240.7c11,0,35.1-6.9,37.1-16.3"/>
			<g>
				<circle class="st19" cx="436.5" cy="240.7" r="2.6"/>
			</g>
		</g>
	</g>
	<g>
		<g>
			<path class="st18" d="M83.1,252.4c-7.6-5-13.5-12.9-13.8-18.4"/>
			<g>
				<path class="st19" d="M84.4,250.1c1.2,0.8,1.6,2.4,0.8,3.6c-0.8,1.2-2.4,1.6-3.6,0.8c-1.2-0.8-1.6-2.4-0.8-3.6
					S83.2,249.3,84.4,250.1z"/>
			</g>
		</g>
	</g>
	<g>
		<g>
			<path class="st18" d="M293,269.9c-7.9,7.6-15.8,37.4-5.1,65.4"/>
			<g>
				<path class="st19" d="M291.4,267.9c1.2-0.9,2.8-0.6,3.7,0.6c0.9,1.2,0.6,2.8-0.6,3.7c-1.2,0.9-2.8,0.6-3.7-0.6
					S290.2,268.7,291.4,267.9z"/>
			</g>
		</g>
	</g>
	<g>
		<g>
			<path class="st18" d="M59.5,250c-3.2,4.6-10.3,5.2-10.9,13.6"/>
			<g>
				<path class="st19" d="M57,248.8c0.7-1.3,2.3-1.8,3.6-1.1s1.8,2.3,1.1,3.6c-0.7,1.3-2.3,1.8-3.6,1.1S56.4,250.1,57,248.8z"/>
			</g>
		</g>
	</g>
	<rect x="244.4" y="335.5" class="st20" width="95.6" height="11.9"/>
	<text transform="matrix(1 0 0 1 250.0654 343.894)" class="st19 st5 st6">Time widget updated</text>
	<text transform="matrix(1 0 0 1 36.4543 334.4722)" class="st19 st5 st6">In the future</text>
	<text transform="matrix(1 0 0 1 100.6253 334.0817)" class="st21"><tspan x="0" y="0" class="st19 st5 st6">in 9 mins or</tspan><tspan x="46.9" y="0" class="st19 st5 st6"> </tspan><tspan x="0" y="10.8" class="st19 st5 st6">&lt; 5 mins ago</tspan></text>
	<text transform="matrix(1 0 0 1 168.9319 334.4722)" class="st21"><tspan x="0" y="0" class="st19 st5 st6">In the past</tspan><tspan x="0" y="10.8" class="st19 st5 st6">or no default</tspan></text>
	<rect x="145.7" y="154.7" class="st20" width="75.6" height="11.9"/>
	<rect x="164.9" y="184.8" class="st20" width="75.6" height="11.9"/>
	<text transform="matrix(1 0 0 1 151.3148 163.1103)" class="st19 st5 st6">Last sat comms </text>
	<text transform="matrix(1 0 0 1 151.3148 163.1103)" class="st19 st5 st6">Last sat comms </text>
	<text transform="matrix(1 0 0 1 170.5626 193.2362)" class="st19 st5 st6">Last cell comms </text>
	<rect x="28.4" y="171.9" class="st20" width="82.7" height="25.4"/>
	<text transform="matrix(1 0 0 1 33.0229 181.884)" class="st21"><tspan x="0" y="0" class="st19 st5 st6">Start time and age</tspan><tspan x="0" y="10.8" class="st19 st5 st6">of data log</tspan></text>
	<rect x="293.5" y="190.7" class="st20" width="59.6" height="11.9"/>
	<text transform="matrix(1 0 0 1 298.588 199.6386)" class="st19 st5 st6">Last GPS fix</text>
	<text transform="matrix(1 0 0 1 273.2951 230.8769)" class="st21"><tspan x="0" y="0" class="st19 st5 st6">Battery level</tspan><tspan x="0" y="10.8" class="st19 st5 st6">13.5 to 16.5v</tspan></text>
	<rect x="265.8" y="221.3" class="st20" width="59.6" height="24.8"/>
	<text transform="matrix(1 0 0 1 268.3311 230.8769)" class="st21"><tspan x="0" y="0" class="st19 st5 st6">Battery level</tspan><tspan x="0" y="10.8" class="st19 st5 st6">13.5 to 16.5v</tspan></text>
	<rect x="124.1" y="237.3" class="st20" width="61.1" height="24.8"/>
	<text transform="matrix(1 0 0 1 127.6565 246.8769)" class="st21"><tspan x="0" y="0" class="st19 st5 st6">Black spots =</tspan><tspan x="0" y="10.8" class="st19 st5 st6">bad battery</tspan></text>
	<rect x="20" y="221.1" class="st20" width="85.8" height="13.9"/>
	<rect x="18.5" y="261.7" class="st20" width="85.8" height="13.9"/>
	<text transform="matrix(1 0 0 1 22.4912 230.6371)" class="st19 st5 st6">Commanded speed</text>
	<text transform="matrix(1 0 0 1 21.0029 271.2193)" class="st19 st5 st6">Thruster Servo error</text>
	<rect x="170.7" y="289.8" class="st20" width="95.6" height="11.9"/>
	<text transform="matrix(1 0 0 1 179.776 298.786)" class="st19 st5 st6">  OK or      dropped</text>
	<rect x="173.9" y="291.6" class="st9" width="8.9" height="8.2"/>
	<rect x="211.4" y="291.6" class="st7" width="8.9" height="8.2"/>
</g>
</svg>
