<?xml version="1.0" encoding="utf-8"?>
<!-- Generator: Adobe Illustrator 24.1.2, SVG Export Plug-In . SVG Version: 6.00 Build 0)  -->
<svg version="1.1" xmlns="http://www.w3.org/2000/svg" xmlns:xlink="http://www.w3.org/1999/xlink" x="0px" y="0px"
	 viewBox="0 0 704.9 346" style="enable-background:new 0 0 704.9 346;" xml:space="preserve">
<style type="text/css">
	.st0{fill:#FFFFFF;stroke:#000000;}
	.st1{fill:#CFDEE2;}
	.st2{fill:none;}
	.st3{fill:none;stroke:#000000;}
	.st4{fill:#D4D2D2;stroke:#000000;}
	.st5{font-family:'HelveticaNeue';}
	.st6{font-size:12px;}
	.st7{fill:#EF9D30;stroke:#000000;}
	.st8{fill:none;stroke:#000000;stroke-linecap:round;}
	.st9{fill:#5AC1A4;stroke:#000000;}
	.st10{fill:#5AC1A4;}
	.st11{fill:#FFE850;stroke:#000000;}
	.st12{fill:#606060;}
	.st13{font-size:9.3333px;}
	.st14{font-family:'HelveticaNeue-Medium';}
	.st15{font-size:14.6667px;}
	.st16{font-size:8px;}
	.st17{fill:#929090;}
	.st18{fill:none;stroke:#117DA8;stroke-miterlimit:10;}
	.st19{fill:#117DA8;}
	.st20{fill:#CFF2FF;stroke:#117DA8;stroke-miterlimit:10;}
	.st21{enable-background:new    ;}
	.st22{fill:#EF9D30;}
	.st23{fill:#EF9D30;stroke:#000000;stroke-width:0.7;}
	.st24{fill:#5AC1A4;stroke:#000000;stroke-width:0.7;}
	.st25{font-size:10.6667px;}
</style>
<g id="Layer_1">
	<rect x="9.6" y="64.5" class="st0" width="685.4" height="208.1"/>
	<g transform="translate(0 8)">
		<g>
			<path class="st1" d="M694.6,119.3v144.9H9V115.6l7.1,1.3c14.1-1.3,21-10.7,21-10.7l0.2,0.3c0,0,4.3,14.3,19.4,13.8
				c15.1-0.6,24.6-14.8,24.6-14.8s4.3,12.8,22.4,12.1c18.1-0.7,20-10.7,20-10.7s5.3,12.8,21.4,12.2c16.1-0.6,22-12.3,22-12.3
				s5.2,11.2,19.3,9.9c14.1-1.3,21-10.7,21-10.7s4.2,11.9,15.5,11.9s21.4-11.2,21.4-11.2s4.3,14.3,19.4,13.8
				c15.1-0.6,24.6-14.8,24.6-14.8s4.3,12.8,22.4,12.1c18.1-0.7,20-10.7,20-10.7s5.3,12.8,21.4,12.2c16.1-0.6,22-12.3,22-12.3
				s5.2,11.2,19.3,9.9c14.1-1.3,21-10.7,21-10.7l0.2,0.3c0,0,4.3,14.3,19.4,13.8c15.1-0.6,24.6-14.8,24.6-14.8s4.3,12.8,22.4,12.1
				c18.1-0.7,20-10.7,20-10.7s5.3,12.8,21.4,12.2c16.1-0.6,22-12.3,22-12.3s5.2,11.2,19.3,9.9c14.1-1.3,21-7.6,21-7.6
				s6.7,12,21.8,11.4c15.1-0.6,24.6-14.8,24.6-14.8s4.3,12.8,22.4,12.1s20-10.7,20-10.7S678.5,119.9,694.6,119.3"/>
		</g>
	</g>
	<rect x="9.6" y="224.5" class="st2" width="685.4" height="48.1"/>
	<rect x="9.6" y="64.5" class="st3" width="685.4" height="208.1"/>
	<line class="st2" x1="174.7" y1="238.5" x2="198.7" y2="224.5"/>
	<path class="st2" d="M23.1,279.6c0,0,9.9-11.9,27.8-11.9s27.8,11.9,56.1,11.9s39.7-25.3,63.5-38.5"/>
	<path class="st4" d="M579.8,238.3H207.5v-80.5h372.4c22.2,0,40.3,18,40.3,40.3l0,0C620.1,220.3,602.1,238.3,579.8,238.3z"/>
	<polygon class="st0" points="46.9,208.2 207.4,238.3 207.4,157.8 46.9,188 	"/>
	<polygon class="st0" points="180.9,162.8 165.8,165.4 166.8,93.9 181.7,89.9 	"/>
	<text transform="matrix(1 0 0 1 167.0517 187.517)" class="st5 st6">HW</text>
	<text transform="matrix(1 0 0 1 167.0517 204.85)" class="st5 st6">SW</text>
	<text transform="matrix(1 0 0 1 167.0517 222.183)" class="st5 st6">OT</text>
	<circle class="st0" cx="196.4" cy="183.5" r="5.3"/>
	<circle class="st0" cx="196.4" cy="200.8" r="5.3"/>
	<circle class="st0" cx="196.4" cy="218.2" r="5.3"/>
	<rect x="220.1" y="225.4" class="st7" width="32.6" height="12.7"/>
	<g>
		<line class="st8" x1="474.2" y1="190.4" x2="474.2" y2="205.8"/>
		<line class="st8" x1="465.2" y1="206.7" x2="483.3" y2="206.7"/>
		<line class="st8" x1="466.9" y1="209.6" x2="481.5" y2="209.6"/>
		<line class="st8" x1="468.7" y1="212.6" x2="479.7" y2="212.6"/>
	</g>
	<line class="st8" x1="470.5" y1="215.6" x2="477.9" y2="215.6"/>
	<circle class="st9" cx="74.4" cy="197.7" r="10.9"/>
	<g>
		<circle class="st9" cx="252.4" cy="170.7" r="5.3"/>
		<circle class="st9" cx="265.7" cy="170.7" r="5.3"/>
		<circle class="st9" cx="279.1" cy="170.7" r="5.3"/>
		<circle class="st9" cx="292.4" cy="170.7" r="5.3"/>
		<circle class="st9" cx="305.7" cy="170.7" r="5.3"/>
		<circle class="st9" cx="319.1" cy="170.7" r="5.3"/>
		<circle class="st7" cx="332.4" cy="170.7" r="5.3"/>
	</g>
	<circle class="st10" cx="420.4" cy="92.8" r="2.7"/>
	<circle class="st2" cx="420.4" cy="106.8" r="2.1"/>
	<circle class="st9" cx="25.1" cy="242.8" r="2.7"/>
	<circle class="st9" cx="25.1" cy="256.8" r="2.7"/>
	<rect x="189" y="92.8" class="st11" width="32.6" height="15.3"/>
	<rect x="187.3" y="131.8" class="st11" width="35.2" height="15.1"/>
	<rect x="384.1" y="144.5" class="st9" width="35.9" height="13.6"/>
	<rect x="288.8" y="197.9" class="st9" width="34" height="14"/>
	<rect x="288.8" y="182" class="st9" width="34" height="14"/>
	<rect x="220.1" y="225.4" class="st7" width="32.6" height="12.7"/>
	<rect x="187.3" y="131.8" class="st11" width="35.2" height="15.1"/>
	<rect x="288.8" y="182" class="st9" width="34" height="14"/>
	<rect x="480.4" y="187.5" class="st9" width="32.6" height="14"/>
	<polygon class="st0" points="562.9,231.9 578.3,231.9 585.7,243.2 562.4,243.2 	"/>
	
		<ellipse transform="matrix(0.1602 -0.9871 0.9871 0.1602 193.5573 721.0386)" class="st2" cx="520.5" cy="246.8" rx="7.8" ry="7.8"/>
	<circle class="st0" cx="565.7" cy="177.9" r="5.4"/>
	<circle class="st0" cx="566.2" cy="194.8" r="5.4"/>
	<text transform="matrix(1 0 0 1 561.7187 211.517)" class="st12 st5 st13">na</text>
	<text transform="matrix(1 0 0 1 483.0517 96.85)" class="st12 st5 st6">profile_station - 11:28 • 18Jul20</text>
	<text transform="matrix(1 0 0 1 190.0478 143.9496)" class="st5 st6">11:31</text>
	<text transform="matrix(1 0 0 1 190.0488 105.017)" class="st5 st6">11:32</text>
	<text transform="matrix(1 0 0 1 387.1855 155.0902)" class="st5 st6">11:28</text>
	<text transform="matrix(1 0 0 1 637.7187 182.183)" class="st5 st6">226°</text>
	<text transform="matrix(1 0 0 1 637.7187 217.2777)" class="st5 st6">0.7km/hr</text>
	<text transform="matrix(1 0 0 1 100.3852 246.7035)" class="st5 st6">12:32 - in 42m</text>
	<text transform="matrix(1 0 0 1 100.3852 261.1029)" class="st5 st6">15:28 - in 3h 38m</text>
	<text transform="matrix(1 0 0 1 292.3852 103.8129)" class="st12 st5 st13">17m ago</text>
	<text transform="matrix(1 0 0 1 87.0517 144.3217)" class="st5 st6">15:35</text>
	<text transform="matrix(1 0 0 1 87.0517 157.1469)" class="st12 st5 st13">20h 14m ago</text>
	<text transform="matrix(1 0 0 1 296.3852 143.8129)" class="st12 st5 st13">18m ago</text>
	<text transform="matrix(1 0 0 1 291.0517 192.8402)" class="st5 st6">16.3</text>
	<text transform="matrix(1 0 0 1 291.0517 209.5053)" class="st5 st6">338.0</text>
	<text transform="matrix(1 0 0 1 280.3852 222.183)" class="st12 st5 st13">5h 41m ago</text>
	<text transform="matrix(1 0 0 1 293.2363 248.7621)" class="st12 st5 st13">20:55</text>
	<text transform="matrix(1 0 0 1 479.5361 183.5082)" class="st12 st5 st13">2h 13m ago</text>
	<text transform="matrix(1 0 0 1 481.7187 150.85)" class="st12 st5 st13">21m ago</text>
	<text transform="matrix(1 0 0 1 483.0517 198.8461)" class="st5 st6">OK</text>
	<text transform="matrix(1 0 0 1 104.4667 208.85)" class="st12 st5 st13">1.0m/s</text>
	<text transform="matrix(1 0 0 1 373.7187 188.4945)" class="st14 st15">BRIZO</text>
	<text transform="matrix(1 0 0 1 381.7187 222.183)" class="st14 st15">11:50</text>
	<text transform="matrix(1 0 0 1 639.0517 240.85)" class="st12 st5 st16">0.4km in 0.6h</text>
	<text transform="matrix(1 0 0 1 425.7187 96.85)" class="st5 st6">MISSION:</text>
	<text transform="matrix(1 0 0 1 379.0517 206.183)" class="st12 st5 st13">UPDATED:</text>
	<g>
		<circle cx="252.4" cy="170.7" r="2.7"/>
		<circle cx="279.1" cy="170.7" r="2.7"/>
		<circle cx="305.7" cy="170.7" r="2.7"/>
		<circle cx="332.4" cy="170.7" r="2.7"/>
		<text transform="matrix(1 0 0 1 220.3852 171.517)" class="st12 st5 st13">BAD</text>
		<text transform="matrix(1 0 0 1 220.3852 180.85)" class="st12 st5 st13">CELL</text>
	</g>
	<text transform="matrix(1 0 0 1 639.0517 231.517)" class="st12 st5 st16">reckoned</text>
	<text transform="matrix(1 0 0 1 105.7187 215.517)" class="st12 st5 st16">command</text>
	<text transform="matrix(1 0 0 1 251.9052 193.2025)" class="st5 st6">Volts:</text>
	<text transform="matrix(1 0 0 1 246.7573 209.4057)" class="st5 st6">AmpH:</text>
	<text transform="matrix(1 0 0 1 220.3852 248.85)" class="st12 st5 st13">DROP WEIGHT</text>
	<text transform="matrix(1 0 0 1 31.7792 246.7035)" class="st5 st6">NextComm:</text>
	<text transform="matrix(1 0 0 1 31.0517 261.1029)" class="st5 st6">Timeout: </text>
	<g>
		<text transform="matrix(1 0 0 1 487.0517 212.85)" class="st12 st5 st13">GROUND</text>
		<text transform="matrix(1 0 0 1 487.0517 223.517)" class="st12 st5 st13">FAULT</text>
	</g>
	<text transform="matrix(1 0 0 1 560.5126 226.7826)" class="st5 st6">DVL</text>
	<text transform="matrix(1 0 0 1 426.1874 151.3373)" class="st5 st6">Last GPS</text>
	<text transform="matrix(1 0 0 1 226.3242 103.8129)" class="st5 st6">Sat comms</text>
	<text transform="matrix(1 0 0 1 229.2519 144.3217)" class="st5 st6">Cell comms</text>
	<text transform="matrix(1 0 0 1 32.3852 144.3217)" class="st5 st6">Log start:</text>
	<text transform="matrix(1 0 0 1 99.0078 196.2523)" class="st5 st6">Thruster</text>
	<g>
		<rect x="632.6" y="190.5" class="st17" width="15.6" height="9.3"/>
		<g>
			<polygon class="st17" points="664.7,195.2 641.5,204.7 647,195.2 641.5,185.7 			"/>
		</g>
	</g>
	<path class="st18" d="M413.8,92.8c-43.2,0-34.1-44.2-24.3-51.5"/>
	<g>
		<g>
			<path class="st18" d="M478.4,195.5c-12,5.4-33.3,16.1-33.3,50"/>
			<g>
				<path class="st19" d="M477.2,193.2c1.3-0.6,2.9,0,3.5,1.3s0,2.9-1.3,3.5c-1.3,0.6-2.9,0-3.5-1.3S475.8,193.8,477.2,193.2z"/>
			</g>
		</g>
	</g>
	<circle class="st18" cx="420" cy="92.8" r="6.8"/>
</g>
<g id="Layer_2">
	<rect x="570.2" y="288.3" class="st20" width="124.5" height="46.1"/>
	<rect x="414.6" y="245.5" class="st20" width="68.7" height="60.8"/>
	<rect x="389.4" y="10.8" class="st20" width="283.3" height="47.1"/>
	<rect x="479.7" y="70" class="st20" width="82" height="14.4"/>
	<rect x="566.4" y="99.2" class="st20" width="105.5" height="14.4"/>
	<rect x="575" y="150.5" class="st20" width="111.1" height="14.4"/>
	<rect x="513.8" y="245.5" class="st20" width="87.8" height="14.4"/>
	<text transform="matrix(1 0 0 1 571.5859 110.4999)" class="st19 st5 st6">Mission start time</text>
	<text transform="matrix(1 0 0 1 28.7861 41.8549)" class="st19 st5 st15">LEGEND FOR AUV DISPLAY WIDGET</text>
	<text transform="matrix(1 0 0 1 579.0302 299.5229)" class="st21"><tspan x="0" y="0" class="st19 st5 st6">Speed and Heading</tspan><tspan x="0" y="14.4" class="st19 st5 st6">estimated from last</tspan><tspan x="0" y="28.8" class="st19 st5 st6">two GPS fixes</tspan></text>
	<text transform="matrix(1 0 0 1 483.2519 81.849)" class="st19 st5 st6">Mission name</text>
	<text transform="matrix(1 0 0 1 518.4765 256.7035)" class="st19 st5 st6">Not set up yet</text>
	<rect x="455.8" y="160" class="st20" width="84" height="14.4"/>
	<text transform="matrix(1 0 0 1 461.0888 171.2055)" class="st19 st5 st6">Last GF scan</text>
	<text transform="matrix(1 0 0 1 577.83 161.6566)" class="st19 st5 st6">UBAT on &amp; flow OK</text>
	<text transform="matrix(1 0 0 1 404.79 24.4765)" class="st19 st5 st6">Mission found in default list</text>
	<text transform="matrix(1 0 0 1 404.79 39.724)" class="st21"><tspan x="0" y="0" class="st19 st5 st6">Mission not in default list </tspan><tspan x="0" y="14.4" class="st19 st5 st6">  (mission timeout,</tspan><tspan x="98" y="14.4" class="st19 st5 st6"> </tspan><tspan x="101.6" y="14.4" class="st19 st5 st6">nextcomm, speed not reliable) </tspan></text>
	<circle class="st10" cx="397.7" cy="20.2" r="2.7"/>
	<circle class="st22" cx="397.7" cy="36.1" r="2.7"/>
	<rect x="13.1" y="282.2" class="st20" width="283.3" height="52.1"/>
	<text transform="matrix(1 0 0 1 28.4404 295.9018)" class="st19 st5 st6">Predicted next comm and Mission Timeout:</text>
	<circle class="st9" cx="33" cy="308.4" r="2.7"/>
	<circle class="st11" cx="119.2" cy="308.4" r="2.7"/>
	<circle class="st7" cx="209.3" cy="308.4" r="2.7"/>
	<rect x="427.6" y="292.9" class="st23" width="50.8" height="11.1"/>
	<rect x="427.6" y="276.7" class="st11" width="50.8" height="13.3"/>
	<rect x="427.6" y="261.3" class="st24" width="50.8" height="12.3"/>
	<text transform="matrix(1 0 0 1 419.2519 256.7035)" class="st21"><tspan x="0" y="0" class="st19 st5 st6">GF:   </tspan><tspan x="0" y="14.9" class="st19 st5 st6">    </tspan><tspan x="13.3" y="14.9" class="st19 st5 st25">ok </tspan><tspan x="0" y="29.9" class="st19 st5 st25">    medium</tspan><tspan x="0" y="44.8" class="st19 st5 st25">    high</tspan></text>
	<g>
		<g>
			<path class="st18" d="M630.6,224.5c-9.5,10.5-10.1,61.4,1,63.8"/>
			<g>
				<path class="st19" d="M628.9,222.5c1.1-0.9,2.8-0.7,3.7,0.4s0.7,2.8-0.4,3.7c-1.1,0.9-2.8,0.7-3.7-0.4S627.7,223.4,628.9,222.5z
					"/>
			</g>
		</g>
	</g>
	<g>
		<g>
			<path class="st18" d="M87.9,261.9c-0.7,5.2-14.8,12.9-19.2,20.3"/>
			<g>
				<path class="st19" d="M85.4,262.8c-0.5-1.4,0.3-2.9,1.7-3.3c1.4-0.5,2.9,0.3,3.3,1.7c0.5,1.4-0.3,2.9-1.7,3.3
					C87.3,265,85.8,264.2,85.4,262.8z"/>
			</g>
		</g>
	</g>
	<g>
		<g>
			<path class="st18" d="M573.1,187.1c14.2,0.3,47.5-8.9,50.3-21.8"/>
			<g>
				<path class="st19" d="M573,189.7c-1.4-0.1-2.5-1.4-2.4-2.8c0.1-1.4,1.4-2.5,2.8-2.4c1.4,0.1,2.5,1.4,2.4,2.8
					C575.7,188.8,574.4,189.8,573,189.7z"/>
			</g>
		</g>
	</g>
	<g>
		<g>
			<path class="st18" d="M103.6,203.2c-10.5-6.6-18.7-17.4-19.1-25"/>
			<g>
				<path class="st19" d="M104.9,200.8c1.2,0.8,1.6,2.4,0.8,3.6c-0.8,1.2-2.4,1.6-3.6,0.8c-1.2-0.8-1.6-2.4-0.8-3.6
					C102,200.4,103.7,200,104.9,200.8z"/>
			</g>
		</g>
	</g>
	<g>
		<g>
			<path class="st18" d="M383.3,225.5c-10.8,9.1-22,49.7-7.4,87.8"/>
			<g>
				<path class="st19" d="M381.8,223.4c1.2-0.8,2.8-0.5,3.6,0.7s0.5,2.8-0.7,3.6c-1.2,0.8-2.8,0.5-3.6-0.7
					C380.3,225.8,380.6,224.2,381.8,223.4z"/>
			</g>
		</g>
	</g>
	<g>
		<g>
			<path class="st18" d="M71.8,198.8c-4.1,6.7-14.2,7.3-14.9,18.8"/>
			<g>
				<path class="st19" d="M69.3,197.7c0.6-1.3,2.2-1.9,3.5-1.2s1.9,2.2,1.2,3.5c-0.6,1.3-2.2,1.9-3.5,1.2
					C69.3,200.6,68.7,199,69.3,197.7z"/>
			</g>
		</g>
	</g>
	<rect x="318" y="313.5" class="st20" width="127.5" height="15.9"/>
	<text transform="matrix(1 0 0 1 325.4745 324.7084)" class="st19 st5 st6">Time widget updated</text>
	<text transform="matrix(1 0 0 1 40.6596 312.1459)" class="st19 st5 st6">In the future</text>
	<text transform="matrix(1 0 0 1 126.2206 311.6254)" class="st21"><tspan x="0" y="0" class="st19 st5 st6">in 9 mins or</tspan><tspan x="62.5" y="0" class="st19 st5 st6"> </tspan><tspan x="0" y="14.4" class="st19 st5 st6">&lt; 5 mins ago</tspan></text>
	<text transform="matrix(1 0 0 1 217.2963 312.1459)" class="st21"><tspan x="0" y="0" class="st19 st5 st6">In the past</tspan><tspan x="0" y="14.4" class="st19 st5 st6">or no default</tspan></text>
	<rect x="186.3" y="72.4" class="st20" width="100.8" height="15.9"/>
	<rect x="212" y="112.6" class="st20" width="100.8" height="15.9"/>
	<text transform="matrix(1 0 0 1 193.8066 83.6635)" class="st19 st5 st6">Last sat comms </text>
	<text transform="matrix(1 0 0 1 193.8066 83.6635)" class="st19 st5 st6">Last sat comms </text>
	<text transform="matrix(1 0 0 1 219.4706 123.8315)" class="st19 st5 st6">Last cell comms </text>
	<rect x="29.9" y="95.3" class="st20" width="110.3" height="33.9"/>
	<text transform="matrix(1 0 0 1 36.0844 108.6952)" class="st21"><tspan x="0" y="0" class="st19 st5 st6">Start time and age</tspan><tspan x="0" y="14.4" class="st19 st5 st6">of data log</tspan></text>
	<rect x="383.3" y="120.5" class="st20" width="79.5" height="15.9"/>
	<text transform="matrix(1 0 0 1 390.1708 132.3681)" class="st19 st5 st6">Last GPS fix</text>
	<text transform="matrix(1 0 0 1 356.4472 174.019)" class="st21"><tspan x="0" y="0" class="st19 st5 st6">Battery level</tspan><tspan x="0" y="14.4" class="st19 st5 st6">13.5 to 16.5v</tspan></text>
	<rect x="346.4" y="161.3" class="st20" width="79.5" height="33.1"/>
	<text transform="matrix(1 0 0 1 349.8286 174.019)" class="st21"><tspan x="0" y="0" class="st19 st5 st6">Battery level</tspan><tspan x="0" y="14.4" class="st19 st5 st6">13.5 to 16.5v</tspan></text>
	<rect x="157.6" y="182.6" class="st20" width="81.5" height="33.1"/>
	<text transform="matrix(1 0 0 1 162.2626 195.352)" class="st21"><tspan x="0" y="0" class="st19 st5 st6">Black spots =</tspan><tspan x="0" y="14.4" class="st19 st5 st6">bad battery</tspan></text>
	<rect x="18.7" y="160.9" class="st20" width="114.4" height="18.5"/>
	<rect x="16.7" y="215.1" class="st20" width="114.4" height="18.5"/>
	<text transform="matrix(1 0 0 1 22.0419 173.6996)" class="st19 st5 st6">Commanded speed</text>
	<text transform="matrix(1 0 0 1 20.0576 227.809)" class="st19 st5 st6">Thruster Servo error</text>
	<rect x="219.6" y="252.6" class="st20" width="127.5" height="15.9"/>
	<text transform="matrix(1 0 0 1 231.7548 264.5648)" class="st19 st5 st6">  OK or      dropped</text>
	<rect x="224" y="255" class="st9" width="11.9" height="10.9"/>
	<rect x="273.9" y="255" class="st7" width="11.9" height="10.9"/>
</g>
</svg>
