<svg id="Layer_1" data-name="Layer 1" 
xmlns="http://www.w3.org/2000/svg"  
x="0px" y="0px" viewBox="0 0 300 210" xml:space="preserve">



 <defs>
 <style>
 .st1 { fill: #dcddde; }
 .st2, .st3 { fill: #fff; }
 .st2 { stroke: #9b509f; }
 .st10, .st2, .st3 { stroke-miterlimit: 10; }
 .st10, .st2 { stroke-width: 2px; }
 .st3 { stroke: #231f20; }
 .st4 { fill: #ef972c; }
 .st5 { fill: #727373; }
 .st6 { fill: #5cba48; }
 .st7, .st8, .st9 { font-size: 7px; }
 .st7, .st8 { fill: #231f20; }
 .te5, .st7, .st9 { font-family: Helvetica; }
 .st8 { font-family: Helvetica-Bold, Helvetica; font-weight: 700; }
 .st9 { fill: #919396; }
 .st10 { fill: none; stroke: #fff; }

 .fill_gray { fill: #bbbbbb; }
 .fill_white { fill: #fff; }
 .stroke_purple { stroke: #ab60af; fill:none; stroke-width: 2px; }
 .stroke_black  { stroke: #000; fill:none; stroke-width: 2px; }
 .stroke_blue  { stroke: #067878; fill:none; stroke-width: 2px; stroke-dasharray:1.1 1.4;}
 .stroke_dash  { stroke-dasharray:1.1 1.4;}
 .stroke_2px { stroke-width: 2px; }
 .stroke_white { fill: none; stroke: #fff; }
 .stroke_none {stroke: none; fill:none};
 .stroke_darkGray { stroke: #231f20; fill: none; stroke-width: 2px;}
 .fill_orange { fill: #ef972c; }
 .fill_yellow { fill: #efef00; }
 .fill_lightgray { fill: #e2e2e2; }
 .thick_orange     { stroke-width:4px; fill:none; stroke: #ef972c; }
 .thick_yellow     { stroke-width:4px; fill:none; stroke: #f7ca0b; }
 .thick_gray       { stroke-width:4px; fill:none; stroke: #bbbbbb; }
 .thick_green      { stroke-width:4px; fill:none; stroke: #5cba48; }
 .fill_green { fill: #5cba48; }
 .font_size5 { font-size: 5px; }
 .font_size7 { font-size: 7px; }
 .font_size9 { font-size: 9px; }
 .fill_red {fill: #e24466; }
 .fill_darkgray { fill: #231f20; }
 .font_helv { font-family: Helvetica; }
 .font_helvBold { font-family: Helvetica-Bold, Helvetica; font-weight: 700; }
 .fill_lightergray { fill: #919396; }
    </style>
  </defs>
  <rect class="fill_lightgray" x="3.91" width="290" height="200"/> 
  <circle desc="c_big_01" class="stroke_none" cx="31" cy="24" r="12"/>
<circle desc="c_big_02" class="stroke_none" cx="57" cy="24" r="12"/>
<circle desc="c_big_03" class="stroke_purple" cx="83" cy="24" r="12"/>
<circle desc="c_big_04" class="stroke_none" cx="109" cy="24" r="12"/>
<circle desc="c_big_05" class="stroke_none" cx="135" cy="24" r="12"/>
<circle desc="c_big_06" class="stroke_none" cx="161" cy="24" r="12"/>
<circle desc="c_big_07" class="stroke_none" cx="187" cy="24" r="12"/>
<circle desc="c_big_08" class="stroke_none" cx="213" cy="24" r="12"/>
<circle desc="c_big_09" class="stroke_none" cx="239" cy="24" r="12"/>
<circle desc="c_big_10" class="stroke_none" cx="265" cy="24" r="12"/>
<circle desc="c_big_11" class="stroke_none" cx="31" cy="50" r="12"/>
<circle desc="c_big_12" class="stroke_none" cx="57" cy="50" r="12"/>
<circle desc="c_big_13" class="stroke_none" cx="83" cy="50" r="12"/>
<circle desc="c_big_14" class="stroke_none" cx="109" cy="50" r="12"/>
<circle desc="c_big_15" class="stroke_none" cx="135" cy="50" r="12"/>
<circle desc="c_big_16" class="stroke_none" cx="161" cy="50" r="12"/>
<circle desc="c_big_17" class="stroke_none" cx="187" cy="50" r="12"/>
<circle desc="c_big_18" class="stroke_none" cx="213" cy="50" r="12"/>
<circle desc="c_big_19" class="stroke_none" cx="239" cy="50" r="12"/>
<circle desc="c_big_20" class="stroke_none" cx="265" cy="50" r="12"/>
<circle desc="c_big_21" class="stroke_none" cx="31" cy="76" r="12"/>
<circle desc="c_big_22" class="stroke_none" cx="57" cy="76" r="12"/>
<circle desc="c_big_23" class="stroke_blue" cx="83" cy="76" r="12"/>
<circle desc="c_big_24" class="stroke_none" cx="109" cy="76" r="12"/>
<circle desc="c_big_25" class="stroke_blue" cx="135" cy="76" r="12"/>
<circle desc="c_big_26" class="stroke_none" cx="161" cy="76" r="12"/>
<circle desc="c_big_27" class="stroke_none" cx="187" cy="76" r="12"/>
<circle desc="c_big_28" class="stroke_none" cx="213" cy="76" r="12"/>
<circle desc="c_big_29" class="stroke_none" cx="239" cy="76" r="12"/>
<circle desc="c_big_30" class="stroke_blue" cx="265" cy="76" r="12"/>
<circle desc="c_big_31" class="stroke_none" cx="31" cy="102" r="12"/>
<circle desc="c_big_32" class="stroke_none" cx="57" cy="102" r="12"/>
<circle desc="c_big_33" class="stroke_none" cx="83" cy="102" r="12"/>
<circle desc="c_big_34" class="stroke_none" cx="109" cy="102" r="12"/>
<circle desc="c_big_35" class="stroke_none" cx="135" cy="102" r="12"/>
<circle desc="c_big_36" class="stroke_none" cx="161" cy="102" r="12"/>
<circle desc="c_big_37" class="stroke_none" cx="187" cy="102" r="12"/>
<circle desc="c_big_38" class="stroke_none" cx="213" cy="102" r="12"/>
<circle desc="c_big_39" class="stroke_none" cx="239" cy="102" r="12"/>
<circle desc="c_big_40" class="stroke_none" cx="265" cy="102" r="12"/>
<circle desc="c_big_41" class="stroke_none" cx="31" cy="128" r="12"/>
<circle desc="c_big_42" class="stroke_blue" cx="57" cy="128" r="12"/>
<circle desc="c_big_43" class="stroke_none" cx="83" cy="128" r="12"/>
<circle desc="c_big_44" class="stroke_none" cx="109" cy="128" r="12"/>
<circle desc="c_big_45" class="stroke_none" cx="135" cy="128" r="12"/>
<circle desc="c_big_46" class="stroke_none" cx="161" cy="128" r="12"/>
<circle desc="c_big_47" class="stroke_none" cx="187" cy="128" r="12"/>
<circle desc="c_big_48" class="stroke_none" cx="213" cy="128" r="12"/>
<circle desc="c_big_49" class="stroke_none" cx="239" cy="128" r="12"/>
<circle desc="c_big_50" class="stroke_none" cx="265" cy="128" r="12"/>
<circle desc="c_big_51" class="stroke_none" cx="31" cy="154" r="12"/>
<circle desc="c_big_52" class="stroke_none" cx="57" cy="154" r="12"/>
<circle desc="c_big_53" class="stroke_none" cx="83" cy="154" r="12"/>
<circle desc="c_big_54" class="stroke_none" cx="109" cy="154" r="12"/>
<circle desc="c_big_55" class="stroke_none" cx="135" cy="154" r="12"/>
<circle desc="c_big_56" class="stroke_none" cx="161" cy="154" r="12"/>
<circle desc="c_big_57" class="stroke_none" cx="187" cy="154" r="12"/>
<circle desc="c_big_58" class="stroke_none" cx="213" cy="154" r="12"/>
<circle desc="c_big_59" class="stroke_none" cx="239" cy="154" r="12"/>
<circle desc="c_big_60" class="stroke_none" cx="265" cy="154" r="12"/>
<circle desc="c_small_01" class="fill_gray" cx="31" cy="24" r="10"/>
<circle desc="c_small_02" class="fill_gray" cx="57" cy="24" r="10"/>
<circle desc="c_small_03" class="fill_green" cx="83" cy="24" r="10"/>
<circle desc="c_small_04" class="fill_yellow" cx="109" cy="24" r="10"/>
<circle desc="c_small_05" class="fill_green" cx="135" cy="24" r="10"/>
<circle desc="c_small_06" class="fill_yellow" cx="161" cy="24" r="10"/>
<circle desc="c_small_07" class="fill_green" cx="187" cy="24" r="10"/>
<circle desc="c_small_08" class="fill_green" cx="213" cy="24" r="10"/>
<circle desc="c_small_09" class="fill_green" cx="239" cy="24" r="10"/>
<circle desc="c_small_10" class="fill_green" cx="265" cy="24" r="10"/>
<circle desc="c_small_11" class="fill_green" cx="31" cy="50" r="10"/>
<circle desc="c_small_12" class="fill_green" cx="57" cy="50" r="10"/>
<circle desc="c_small_13" class="fill_green" cx="83" cy="50" r="10"/>
<circle desc="c_small_14" class="fill_green" cx="109" cy="50" r="10"/>
<circle desc="c_small_15" class="fill_green" cx="135" cy="50" r="10"/>
<circle desc="c_small_16" class="fill_green" cx="161" cy="50" r="10"/>
<circle desc="c_small_17" class="fill_green" cx="187" cy="50" r="10"/>
<circle desc="c_small_18" class="fill_green" cx="213" cy="50" r="10"/>
<circle desc="c_small_19" class="fill_yellow" cx="239" cy="50" r="10"/>
<circle desc="c_small_20" class="fill_yellow" cx="265" cy="50" r="10"/>
<circle desc="c_small_21" class="fill_yellow" cx="31" cy="76" r="10"/>
<circle desc="c_small_22" class="fill_yellow" cx="57" cy="76" r="10"/>
<circle desc="c_small_23" class="fill_yellow" cx="83" cy="76" r="10"/>
<circle desc="c_small_24" class="fill_orange" cx="109" cy="76" r="10"/>
<circle desc="c_small_25" class="fill_green" cx="135" cy="76" r="10"/>
<circle desc="c_small_26" class="fill_orange" cx="161" cy="76" r="10"/>
<circle desc="c_small_27" class="fill_yellow" cx="187" cy="76" r="10"/>
<circle desc="c_small_28" class="fill_yellow" cx="213" cy="76" r="10"/>
<circle desc="c_small_29" class="fill_yellow" cx="239" cy="76" r="10"/>
<circle desc="c_small_30" class="fill_yellow" cx="265" cy="76" r="10"/>
<circle desc="c_small_31" class="fill_orange" cx="31" cy="102" r="10"/>
<circle desc="c_small_32" class="fill_yellow" cx="57" cy="102" r="10"/>
<circle desc="c_small_33" class="fill_yellow" cx="83" cy="102" r="10"/>
<circle desc="c_small_34" class="fill_green" cx="109" cy="102" r="10"/>
<circle desc="c_small_35" class="fill_yellow" cx="135" cy="102" r="10"/>
<circle desc="c_small_36" class="fill_yellow" cx="161" cy="102" r="10"/>
<circle desc="c_small_37" class="fill_yellow" cx="187" cy="102" r="10"/>
<circle desc="c_small_38" class="fill_yellow" cx="213" cy="102" r="10"/>
<circle desc="c_small_39" class="fill_yellow" cx="239" cy="102" r="10"/>
<circle desc="c_small_40" class="fill_green" cx="265" cy="102" r="10"/>
<circle desc="c_small_41" class="fill_yellow" cx="31" cy="128" r="10"/>
<circle desc="c_small_42" class="fill_green" cx="57" cy="128" r="10"/>
<circle desc="c_small_43" class="fill_orange" cx="83" cy="128" r="10"/>
<circle desc="c_small_44" class="fill_green" cx="109" cy="128" r="10"/>
<circle desc="c_small_45" class="fill_yellow" cx="135" cy="128" r="10"/>
<circle desc="c_small_46" class="fill_green" cx="161" cy="128" r="10"/>
<circle desc="c_small_47" class="fill_green" cx="187" cy="128" r="10"/>
<circle desc="c_small_48" class="fill_green" cx="213" cy="128" r="10"/>
<circle desc="c_small_49" class="fill_yellow" cx="239" cy="128" r="10"/>
<circle desc="c_small_50" class="fill_yellow" cx="265" cy="128" r="10"/>
<circle desc="c_small_51" class="fill_green" cx="31" cy="154" r="10"/>
<circle desc="c_small_52" class="fill_yellow" cx="57" cy="154" r="10"/>
<circle desc="c_small_53" class="fill_green" cx="83" cy="154" r="10"/>
<circle desc="c_small_54" class="fill_green" cx="109" cy="154" r="10"/>
<circle desc="c_small_55" class="fill_green" cx="135" cy="154" r="10"/>
<circle desc="c_small_56" class="fill_green" cx="161" cy="154" r="10"/>
<circle desc="c_small_57" class="fill_green" cx="187" cy="154" r="10"/>
<circle desc="c_small_58" class="fill_green" cx="213" cy="154" r="10"/>
<circle desc="c_small_59" class="fill_gray" cx="239" cy="154" r="10"/>
<circle desc="c_small_60" class="fill_gray" cx="265" cy="154" r="10"/>
<text desc="t_label_01" class="st7" transform="translate(27 26)">01</text>
<text desc="t_label_02" class="st7" transform="translate(53 26)">02</text>
<text desc="t_label_03" class="st7" transform="translate(79 26)">03</text>
<text desc="t_label_04" class="st7" transform="translate(105 26)">04</text>
<text desc="t_label_05" class="st7" transform="translate(131 26)">05</text>
<text desc="t_label_06" class="st7" transform="translate(157 26)">06</text>
<text desc="t_label_07" class="st7" transform="translate(183 26)">07</text>
<text desc="t_label_08" class="st7" transform="translate(209 26)">08</text>
<text desc="t_label_09" class="st7" transform="translate(235 26)">09</text>
<text desc="t_label_10" class="st7" transform="translate(261 26)">10</text>
<text desc="t_label_11" class="st7" transform="translate(27 52)">11</text>
<text desc="t_label_12" class="st7" transform="translate(53 52)">12</text>
<text desc="t_label_13" class="st7" transform="translate(79 52)">13</text>
<text desc="t_label_14" class="st7" transform="translate(105 52)">14</text>
<text desc="t_label_15" class="st7" transform="translate(131 52)">15</text>
<text desc="t_label_16" class="st7" transform="translate(157 52)">16</text>
<text desc="t_label_17" class="st7" transform="translate(183 52)">17</text>
<text desc="t_label_18" class="st7" transform="translate(209 52)">18</text>
<text desc="t_label_19" class="st7" transform="translate(235 52)">19</text>
<text desc="t_label_20" class="st7" transform="translate(261 52)">20</text>
<text desc="t_label_21" class="st7" transform="translate(27 78)">21</text>
<text desc="t_label_22" class="st7" transform="translate(53 78)">22</text>
<text desc="t_label_23" class="st7" transform="translate(79 78)">23</text>
<text desc="t_label_24" class="st7" transform="translate(105 78)">24</text>
<text desc="t_label_25" class="st7" transform="translate(131 78)">25</text>
<text desc="t_label_26" class="st7" transform="translate(157 78)">26</text>
<text desc="t_label_27" class="st7" transform="translate(183 78)">27</text>
<text desc="t_label_28" class="st7" transform="translate(209 78)">28</text>
<text desc="t_label_29" class="st7" transform="translate(235 78)">29</text>
<text desc="t_label_30" class="st7" transform="translate(261 78)">30</text>
<text desc="t_label_31" class="st7" transform="translate(27 104)">31</text>
<text desc="t_label_32" class="st7" transform="translate(53 104)">32</text>
<text desc="t_label_33" class="st7" transform="translate(79 104)">33</text>
<text desc="t_label_34" class="st7" transform="translate(105 104)">34</text>
<text desc="t_label_35" class="st7" transform="translate(131 104)">35</text>
<text desc="t_label_36" class="st7" transform="translate(157 104)">36</text>
<text desc="t_label_37" class="st7" transform="translate(183 104)">37</text>
<text desc="t_label_38" class="st7" transform="translate(209 104)">38</text>
<text desc="t_label_39" class="st7" transform="translate(235 104)">39</text>
<text desc="t_label_40" class="st7" transform="translate(261 104)">40</text>
<text desc="t_label_41" class="st7" transform="translate(27 130)">41</text>
<text desc="t_label_42" class="st7" transform="translate(53 130)">42</text>
<text desc="t_label_43" class="st7" transform="translate(79 130)">43</text>
<text desc="t_label_44" class="st7" transform="translate(105 130)">44</text>
<text desc="t_label_45" class="st7" transform="translate(131 130)">45</text>
<text desc="t_label_46" class="st7" transform="translate(157 130)">46</text>
<text desc="t_label_47" class="st7" transform="translate(183 130)">47</text>
<text desc="t_label_48" class="st7" transform="translate(209 130)">48</text>
<text desc="t_label_49" class="st7" transform="translate(235 130)">49</text>
<text desc="t_label_50" class="st7" transform="translate(261 130)">50</text>
<text desc="t_label_51" class="st7" transform="translate(27 156)">51</text>
<text desc="t_label_52" class="st7" transform="translate(53 156)">52</text>
<text desc="t_label_53" class="st7" transform="translate(79 156)">53</text>
<text desc="t_label_54" class="st7" transform="translate(105 156)">54</text>
<text desc="t_label_55" class="st7" transform="translate(131 156)">55</text>
<text desc="t_label_56" class="st7" transform="translate(157 156)">56</text>
<text desc="t_label_57" class="st7" transform="translate(183 156)">57</text>
<text desc="t_label_58" class="st7" transform="translate(209 156)">58</text>
<text desc="t_label_59" class="st7" transform="translate(235 156)">59</text>
<text desc="t_label_60" class="st7" transform="translate(261 156)">60</text>
<text desc="pct_label_01" class="te5 font_size5 fill_red" transform="translate(27 31)"></text>
<text desc="pct_label_02" class="te5 font_size5 fill_red" transform="translate(53 31)"></text>
<text desc="pct_label_03" class="te5 font_size5 fill_red" transform="translate(79 31)"></text>
<text desc="pct_label_04" class="te5 font_size5 fill_red" transform="translate(105 31)">17%</text>
<text desc="pct_label_05" class="te5 font_size5 fill_red" transform="translate(131 31)"></text>
<text desc="pct_label_06" class="te5 font_size5 fill_red" transform="translate(157 31)">44%</text>
<text desc="pct_label_07" class="te5 font_size5 fill_red" transform="translate(183 31)"></text>
<text desc="pct_label_08" class="te5 font_size5 fill_red" transform="translate(209 31)"></text>
<text desc="pct_label_09" class="te5 font_size5 fill_red" transform="translate(235 31)"></text>
<text desc="pct_label_10" class="te5 font_size5 fill_red" transform="translate(261 31)"></text>
<text desc="pct_label_11" class="te5 font_size5 fill_red" transform="translate(27 57)"></text>
<text desc="pct_label_12" class="te5 font_size5 fill_red" transform="translate(53 57)"></text>
<text desc="pct_label_13" class="te5 font_size5 fill_red" transform="translate(79 57)"></text>
<text desc="pct_label_14" class="te5 font_size5 fill_red" transform="translate(105 57)"></text>
<text desc="pct_label_15" class="te5 font_size5 fill_red" transform="translate(131 57)"></text>
<text desc="pct_label_16" class="te5 font_size5 fill_red" transform="translate(157 57)"></text>
<text desc="pct_label_17" class="te5 font_size5 fill_red" transform="translate(183 57)"></text>
<text desc="pct_label_18" class="te5 font_size5 fill_red" transform="translate(209 57)"></text>
<text desc="pct_label_19" class="te5 font_size5 fill_red" transform="translate(235 57)">86%</text>
<text desc="pct_label_20" class="te5 font_size5 fill_red" transform="translate(261 57)">51%</text>
<text desc="pct_label_21" class="te5 font_size5 fill_red" transform="translate(27 83)">65%</text>
<text desc="pct_label_22" class="te5 font_size5 fill_red" transform="translate(53 83)">56%</text>
<text desc="pct_label_23" class="te5 font_size5 fill_red" transform="translate(79 83)">85%</text>
<text desc="pct_label_24" class="te5 font_size5 fill_red" transform="translate(105 83)">-X-</text>
<text desc="pct_label_25" class="te5 font_size5 fill_red" transform="translate(131 83)"></text>
<text desc="pct_label_26" class="te5 font_size5 fill_red" transform="translate(157 83)">-X-</text>
<text desc="pct_label_27" class="te5 font_size5 fill_red" transform="translate(183 83)">26%</text>
<text desc="pct_label_28" class="te5 font_size5 fill_red" transform="translate(209 83)">11%</text>
<text desc="pct_label_29" class="te5 font_size5 fill_red" transform="translate(235 83)">55%</text>
<text desc="pct_label_30" class="te5 font_size5 fill_red" transform="translate(261 83)">65%</text>
<text desc="pct_label_31" class="te5 font_size5 fill_red" transform="translate(27 109)">-X-</text>
<text desc="pct_label_32" class="te5 font_size5 fill_red" transform="translate(53 109)">32%</text>
<text desc="pct_label_33" class="te5 font_size5 fill_red" transform="translate(79 109)">75%</text>
<text desc="pct_label_34" class="te5 font_size5 fill_red" transform="translate(105 109)"></text>
<text desc="pct_label_35" class="te5 font_size5 fill_red" transform="translate(131 109)">81%</text>
<text desc="pct_label_36" class="te5 font_size5 fill_red" transform="translate(157 109)">84%</text>
<text desc="pct_label_37" class="te5 font_size5 fill_red" transform="translate(183 109)">74%</text>
<text desc="pct_label_38" class="te5 font_size5 fill_red" transform="translate(209 109)">78%</text>
<text desc="pct_label_39" class="te5 font_size5 fill_red" transform="translate(235 109)">83%</text>
<text desc="pct_label_40" class="te5 font_size5 fill_red" transform="translate(261 109)"></text>
<text desc="pct_label_41" class="te5 font_size5 fill_red" transform="translate(27 135)">61%</text>
<text desc="pct_label_42" class="te5 font_size5 fill_red" transform="translate(53 135)"></text>
<text desc="pct_label_43" class="te5 font_size5 fill_red" transform="translate(79 135)">-X-</text>
<text desc="pct_label_44" class="te5 font_size5 fill_red" transform="translate(105 135)"></text>
<text desc="pct_label_45" class="te5 font_size5 fill_red" transform="translate(131 135)">81%</text>
<text desc="pct_label_46" class="te5 font_size5 fill_red" transform="translate(157 135)"></text>
<text desc="pct_label_47" class="te5 font_size5 fill_red" transform="translate(183 135)"></text>
<text desc="pct_label_48" class="te5 font_size5 fill_red" transform="translate(209 135)"></text>
<text desc="pct_label_49" class="te5 font_size5 fill_red" transform="translate(235 135)">63%</text>
<text desc="pct_label_50" class="te5 font_size5 fill_red" transform="translate(261 135)">87%</text>
<text desc="pct_label_51" class="te5 font_size5 fill_red" transform="translate(27 161)"></text>
<text desc="pct_label_52" class="te5 font_size5 fill_red" transform="translate(53 161)">67%</text>
<text desc="pct_label_53" class="te5 font_size5 fill_red" transform="translate(79 161)"></text>
<text desc="pct_label_54" class="te5 font_size5 fill_red" transform="translate(105 161)"></text>
<text desc="pct_label_55" class="te5 font_size5 fill_red" transform="translate(131 161)"></text>
<text desc="pct_label_56" class="te5 font_size5 fill_red" transform="translate(157 161)"></text>
<text desc="pct_label_57" class="te5 font_size5 fill_red" transform="translate(183 161)"></text>
<text desc="pct_label_58" class="te5 font_size5 fill_red" transform="translate(209 161)"></text>
<text desc="pct_label_59" class="te5 font_size5 fill_red" transform="translate(235 161)"></text>
<text desc="pct_label_60" class="te5 font_size5 fill_red" transform="translate(261 161)"></text>
<text class="font_helv font_size7" transform="translate(26 174)">Last Sample: 1h 11m ago</text><text class="font_helv font_size7" transform="translate(190 174)">UPDATED: 16Oct20 - 13:08</text><text class="te5 font_size5" transform="translate(190 183)">Good Samples: 52</text><text class="te5 font_size5" transform="translate(190 189)">Sample Failed: 4</text>
<circle class="fill_green" cx="30" cy="186" r="6"/>
<text class="te5 font_size5" transform="translate(23 188)">GOOD</text>
<circle class="fill_yellow" cx="53" cy="186" r="6"/>
<text class="te5 font_size5" transform="translate(47 188)">PART</text>
<circle class="fill_orange" cx="76" cy="186" r="6"/>
<text class="te5 font_size5" transform="translate(71 188)">FAIL</text>
<circle class="stroke_purple" cx="100" cy="186" r="6"/>
<text class="te5 font_size5" transform="translate(94 188)">LAST</text>
<circle class="stroke_blue stroke_dash" cx="124" cy="186" r="6"/>
<text class="te5 font_size5" transform="translate(118 188)">REDO</text> 

</svg>
