<?xml version="1.0" encoding="utf-8"?>
<!-- Generator: Adobe Illustrator 24.1.2, SVG Export Plug-In . SVG Version: 6.00 Build 0)  -->
<svg version="1.1" xmlns="http://www.w3.org/2000/svg" xmlns:xlink="http://www.w3.org/1999/xlink" x="0px" y="0px"
	 viewBox="0 0 540.8 258.4" style="enable-background:new 0 0 540.8 258.4;" xml:space="preserve">
<style type="text/css">
	.st0{fill:#FFFFFF;stroke:#000000;}
	.st1{fill:#CFDEE2;}
	.st2{fill:none;}
	.st3{fill:none;stroke:#000000;}
	.st4{fill:#D4D2D2;stroke:#000000;}
	.st5{font-family:HelveticaNeue-Medium,Helvetica,Arial,sans-serif;}
	.st6{font-size:9px;}
	.st7{fill:#EF9D30;stroke:#000000;}
	.st8{fill:none;stroke:#000000;stroke-linecap:round;}
	.st9{fill:#5AC1A4;stroke:#000000;}
	.st10{fill:#5AC1A4;}
	.st11{fill:#FFE850;stroke:#000000;}
	.st12{fill:#606060;}
	.st13{font-size:7px;}
	.st14{font-family:HelveticaNeue-Medium,Helvetica,Arial,sans-serif;}
	.st15{font-size:11px;}
	.st16{font-size:6px;}
	.st17{fill:#929090;}
	.st18{fill:none;stroke:#117DA8;stroke-miterlimit:10;}
	.st19{fill:#117DA8;}
	.st20{fill:#CFF2FF;stroke:#117DA8;stroke-miterlimit:10;}
	.st21{enable-background:new    ;}
	.st22{fill:#EF9D30;}
	.st23{fill:#EF9D30;stroke:#000000;stroke-width:0.7;}
	.st24{fill:#5AC1A4;stroke:#000000;stroke-width:0.7;}
	.st25{font-size:8px;}
</style>
<g id="Layer_1">
	<rect x="13.2" y="49.1" class="st0" width="514.1" height="156.1"/>
	<g transform="translate(0 8)">
		<g>
			<path class="st1" d="M526.9,88.2v108.7H12.7V85.4l5.4,1c10.6-1,15.7-8,15.7-8l0.2,0.2c0,0,3.2,10.8,14.5,10.3
				C59.9,88.5,67,77.8,67,77.8s3.2,9.6,16.8,9.1c13.6-0.5,15-8,15-8s3.9,9.6,16,9.1c12.1-0.5,16.5-9.2,16.5-9.2s3.9,8.4,14.5,7.5
				c10.6-1,15.7-8,15.7-8s3.1,8.9,11.6,8.9s16-8.4,16-8.4s3.2,10.8,14.5,10.3C215,88.6,222.1,78,222.1,78s3.2,9.6,16.8,9.1
				s15-8,15-8s3.9,9.6,16,9.1c12.1-0.5,16.5-9.2,16.5-9.2s3.9,8.4,14.5,7.5c10.6-1,15.7-8,15.7-8l0.2,0.2c0,0,3.2,10.8,14.5,10.3
				c11.3-0.4,18.4-11.1,18.4-11.1s3.2,9.6,16.8,9.1s15-8,15-8s4,9.6,16,9.1c12.1-0.5,16.5-9.2,16.5-9.2s3.9,8.4,14.5,7.5
				c10.6-1,15.7-5.7,15.7-5.7s5,9,16.3,8.5C471.9,88.7,479,78,479,78s3.2,9.6,16.8,9.1s15-8,15-8S514.8,88.6,526.9,88.2"/>
		</g>
	</g>
	<rect x="13.2" y="169.1" class="st2" width="514.1" height="36.1"/>
	<rect x="13.2" y="49.1" class="st3" width="514.1" height="156.1"/>
	<line class="st2" x1="137" y1="179.6" x2="155" y2="169.1"/>
	<path class="st2" d="M23.3,210.5c0,0,7.4-8.9,20.8-8.9s20.9,8.9,42.1,8.9s29.8-19,47.7-28.9"/>
	<path class="st4" d="M440.8,179.5H161.5v-60.4h279.3c16.7,0,30.2,13.5,30.2,30.2l0,0C471,166,457.5,179.5,440.8,179.5z"/>
	<polygon class="st0" points="41.1,156.9 161.5,179.5 161.5,119.1 41.1,141.7 	"/>
	<polygon class="st0" points="141.7,122.8 130.3,124.8 131,71.2 142.2,68.2 	"/>
	<text transform="matrix(1 0 0 1 131.2485 141.3537)" class="st5 st6">HW</text>
	<text transform="matrix(1 0 0 1 131.2485 154.3537)" class="st5 st6">SW</text>
	<text transform="matrix(1 0 0 1 131.2485 167.3537)" class="st5 st6">OT</text>
	<circle class="st0" cx="153.2" cy="138.4" r="4"/>
	<circle class="st0" cx="153.2" cy="151.4" r="4"/>
	<circle class="st0" cx="153.2" cy="164.4" r="4"/>
	<rect x="171" y="169.8" class="st7" width="24.4" height="9.5"/>
	<g>
		<line class="st8" x1="361.6" y1="143.5" x2="361.6" y2="155.1"/>
		<line class="st8" x1="354.8" y1="155.7" x2="368.4" y2="155.7"/>
		<line class="st8" x1="356.2" y1="157.9" x2="367.1" y2="157.9"/>
		<line class="st8" x1="357.5" y1="160.2" x2="365.7" y2="160.2"/>
	</g>
	<line class="st8" x1="358.8" y1="162.4" x2="364.4" y2="162.4"/>
	<circle class="st9" cx="61.8" cy="149" r="8.1"/>
	<g>
		<circle class="st9" cx="195.2" cy="128.7" r="4"/>
		<circle class="st9" cx="205.2" cy="128.7" r="4"/>
		<circle class="st9" cx="215.2" cy="128.7" r="4"/>
		<circle class="st9" cx="225.2" cy="128.7" r="4"/>
		<circle class="st9" cx="235.2" cy="128.7" r="4"/>
		<circle class="st9" cx="245.2" cy="128.7" r="4"/>
		<circle class="st7" cx="255.2" cy="128.7" r="4"/>
	</g>
	<circle class="st10" cx="321.2" cy="70.4" r="2"/>
	<circle class="st2" cx="321.2" cy="80.9" r="1.6"/>
	<circle class="st9" cx="24.7" cy="182.9" r="2"/>
	<circle class="st9" cx="24.7" cy="193.4" r="2"/>
	<rect x="147.7" y="70.3" class="st11" width="24.4" height="11.5"/>
	<rect x="146.4" y="99.6" class="st11" width="26.4" height="11.3"/>
	<rect x="294" y="109.1" class="st9" width="26.9" height="10.2"/>
	<rect x="222.5" y="149.1" class="st9" width="25.5" height="10.5"/>
	<rect x="222.5" y="137.2" class="st9" width="25.5" height="10.5"/>
	<rect x="171" y="169.8" class="st7" width="24.4" height="9.5"/>
	<rect x="146.4" y="99.6" class="st11" width="26.4" height="11.3"/>
	<rect x="222.5" y="137.2" class="st9" width="25.5" height="10.5"/>
	<rect x="366.2" y="141.4" class="st9" width="24.4" height="10.5"/>
	<polygon class="st11" points="428.2,174.6 439.7,174.6 445.2,183.1 427.8,183.1 	"/>
	
		<ellipse transform="matrix(0.1602 -0.9871 0.9871 0.1602 149.466 547.2635)" class="st2" cx="396.3" cy="185.8" rx="5.9" ry="5.9"/>
	<circle class="st0" cx="430.2" cy="134.2" r="4.1"/>
	<circle class="st0" cx="430.6" cy="146.8" r="4.1"/>
	<text transform="matrix(1 0 0 1 427.2485 159.3537)" class="st12 st5 st13">na</text>
	<text transform="matrix(1 0 0 1 368.2485 73.3537)" class="st12 st5 st6">profile_station - 11:28 • 18Jul20</text>
	<text transform="matrix(1 0 0 1 148.4957 108.6786)" class="st5 st6">11:31</text>
	<text transform="matrix(1 0 0 1 148.4963 79.4791)" class="st5 st6">11:32</text>
	<text transform="matrix(1 0 0 1 296.349 117.0336)" class="st5 st6">11:28</text>
	<text transform="matrix(1 0 0 1 484.2485 137.3537)" class="st5 st6">226°</text>
	<text transform="matrix(1 0 0 1 484.2485 163.6742)" class="st5 st6">0.7km/hr</text>
	<text transform="matrix(1 0 0 1 81.2485 185.7436)" class="st5 st6">12:32 - in 42m</text>
	<text transform="matrix(1 0 0 1 81.2485 196.5436)" class="st5 st6">15:28 - in 3h 38m</text>
	<text transform="matrix(1 0 0 1 225.2485 78.5761)" class="st12 st5 st13">17m ago</text>
	<text transform="matrix(1 0 0 1 71.2485 108.9576)" class="st5 st6">15:35</text>
	<text transform="matrix(1 0 0 1 71.2485 118.5761)" class="st12 st5 st13">20h 14m ago</text>
	<text transform="matrix(1 0 0 1 228.2485 108.5761)" class="st12 st5 st13">18m ago</text>
	<text transform="matrix(1 0 0 1 224.2485 145.3468)" class="st5 st6">16.3</text>
	<text transform="matrix(1 0 0 1 224.2485 157.8454)" class="st5 st6">338.0</text>
	<text transform="matrix(1 0 0 1 216.2485 167.3537)" class="st12 st5 st13">5h 41m ago</text>
	<text transform="matrix(1 0 0 1 225.8867 187.2882)" class="st12 st5 st13">20:55</text>
	<text transform="matrix(1 0 0 1 365.6114 138.3473)" class="st12 st5 st13">2h 13m ago</text>
	<text transform="matrix(1 0 0 1 367.2485 113.8537)" class="st12 st5 st13">21m ago</text>
	<text transform="matrix(1 0 0 1 368.2485 149.851)" class="st5 st6">OK</text>
	<text transform="matrix(1 0 0 1 84.3097 157.3537)" class="st12 st5 st13">1.0m/s</text>
	<text transform="matrix(1 0 0 1 286.2485 142.0872)" class="st14 st15">BRIZO</text>
	<text transform="matrix(1 0 0 1 292.2485 167.3537)" class="st14 st15">11:50</text>
	<text transform="matrix(1 0 0 1 485.2485 181.3537)" class="st12 st5 st16">0.4km in 0.6h</text>
	<text transform="matrix(1 0 0 1 325.2485 73.3537)" class="st5 st6">MISSION:</text>
	<text transform="matrix(1 0 0 1 290.2485 155.3537)" class="st12 st5 st13">UPDATED:</text>
	<g>
		<circle cx="195.2" cy="128.7" r="2"/>
		<circle cx="215.2" cy="128.7" r="2"/>
		<circle cx="235.2" cy="128.7" r="2"/>
		<circle cx="255.2" cy="128.7" r="2"/>
		<text transform="matrix(1 0 0 1 171.2485 129.3537)" class="st12 st5 st13">BAD</text>
		<text transform="matrix(1 0 0 1 171.2485 136.3537)" class="st12 st5 st13">CELL</text>
	</g>
	<text transform="matrix(1 0 0 1 485.2485 174.3537)" class="st12 st5 st16">reckoned</text>
	<text transform="matrix(1 0 0 1 85.2485 162.3537)" class="st12 st5 st16">command</text>
	<text transform="matrix(1 0 0 1 194.8885 145.6178)" class="st5 st6">Volts:</text>
	<text transform="matrix(1 0 0 1 191.0276 157.7702)" class="st5 st6">AmpH:</text>
	<text transform="matrix(1 0 0 1 171.2485 187.3537)" class="st12 st5 st13">DROP WEIGHT</text>
	<text transform="matrix(1 0 0 1 428.7364 192.0028)" class="st12 st5 st13">OFF</text>
	<text transform="matrix(1 0 0 1 29.7938 185.7436)" class="st5 st6">NextComm:</text>
	<text transform="matrix(1 0 0 1 29.2485 196.5436)" class="st5 st6">Timeout: </text>
	<g>
		<text transform="matrix(1 0 0 1 371.2485 160.3537)" class="st12 st5 st13">GROUND</text>
		<text transform="matrix(1 0 0 1 371.2485 168.3537)" class="st12 st5 st13">FAULT</text>
	</g>
	<text transform="matrix(1 0 0 1 426.3441 170.8031)" class="st5 st6">DVL</text>
	<text transform="matrix(1 0 0 1 325.5999 114.2191)" class="st5 st6">Last GPS</text>
	<text transform="matrix(1 0 0 1 175.7026 78.5761)" class="st5 st6">Sat comms</text>
	<text transform="matrix(1 0 0 1 177.8984 108.9576)" class="st5 st6">Cell comms</text>
	<text transform="matrix(1 0 0 1 30.2485 108.9576)" class="st5 st6">Log start:</text>
	<text transform="matrix(1 0 0 1 80.2152 147.9057)" class="st5 st6">Thruster</text>
	<g>
		<rect x="480.4" y="143.6" class="st17" width="11.7" height="7"/>
		<g>
			<polygon class="st17" points="504.5,147.1 487.1,154.2 491.2,147.1 487.1,140 			"/>
		</g>
	</g>
	<path class="st18" d="M316.3,70.4c-32.4,0-25.6-33.1-18.2-38.6"/>
	<g>
		<g>
			<path class="st18" d="M364.2,147.6c-9.1,4.1-24.4,12.4-24.4,37.2"/>
			<g>
				<path class="st19" d="M363,145.3c1.3-0.6,2.9,0,3.5,1.3c0.6,1.3,0,2.9-1.3,3.5c-1.3,0.6-2.9,0-3.5-1.3
					C361,147.5,361.6,145.9,363,145.3z"/>
			</g>
		</g>
	</g>
	<circle class="st18" cx="320.9" cy="70.4" r="5.1"/>
</g>
<g id="Layer_2">
	<rect x="433.6" y="216.9" class="st20" width="93.4" height="34.6"/>
	<rect x="316.9" y="184.8" class="st20" width="51.5" height="47.1"/>
	<rect x="298" y="8.8" class="st20" width="212.5" height="35.4"/>
	<rect x="365.7" y="53.2" class="st20" width="61.5" height="10.8"/>
	<rect x="430.8" y="75.2" class="st20" width="79.1" height="10.8"/>
	<rect x="437.2" y="113.6" class="st20" width="83.3" height="10.8"/>
	<text transform="matrix(1 0 0 1 434.6486 83.5911)" class="st19 st5 st6">Mission start time</text>
	<text transform="matrix(1 0 0 1 27.5493 32.1074)" class="st19 st5 st15">LEGEND FOR AUV DISPLAY WIDGET</text>
	<text transform="matrix(1 0 0 1 440.2325 225.3584)" class="st21"><tspan x="0" y="0" class="st19 st5 st6">Speed and Heading</tspan><tspan x="0" y="10.8" class="st19 st5 st6">estimated from last</tspan><tspan x="0" y="21.6" class="st19 st5 st6">two GPS fixes</tspan></text>
	<text transform="matrix(1 0 0 1 368.3982 62.1027)" class="st19 st5 st6">Mission name</text>
	<rect x="347.8" y="120.7" class="st20" width="63" height="10.8"/>
	<text transform="matrix(1 0 0 1 351.7762 129.1205)" class="st19 st5 st6">Last GF scan</text>
	<text transform="matrix(1 0 0 1 439.3318 121.9586)" class="st19 st5 st6">UBAT on &amp; flow OK</text>
	<text transform="matrix(1 0 0 1 309.5522 19.0735)" class="st19 st5 st6">Mission found in default list</text>
	<text transform="matrix(1 0 0 1 309.5522 30.5092)" class="st19 st5 st6">Mission not in default list  </text>
	<circle class="st10" cx="304.2" cy="15.8" r="2"/>
	<circle class="st22" cx="304.2" cy="27.8" r="2"/>
	<rect x="15.8" y="212.4" class="st20" width="212.5" height="39.1"/>
	<text transform="matrix(1 0 0 1 27.2901 222.6425)" class="st19 st5 st6">Predicted next comm and Mission Timeout:</text>
	<circle class="st9" cx="30.7" cy="232" r="2"/>
	<circle class="st11" cx="95.3" cy="232" r="2"/>
	<circle class="st7" cx="162.9" cy="232" r="2"/>
	<rect x="326.7" y="220.4" class="st23" width="38.1" height="8.4"/>
	<rect x="326.7" y="208.2" class="st11" width="38.1" height="10"/>
	<rect x="326.7" y="196.7" class="st24" width="38.1" height="9.2"/>
	<text transform="matrix(1 0 0 1 320.3983 193.2434)" class="st21"><tspan x="0" y="0" class="st19 st5 st6">GF:   </tspan><tspan x="0" y="11.2" class="st19 st5 st6">    </tspan><tspan x="10" y="11.2" class="st19 st5 st25">        </tspan></text>
	<g>
		<g>
			<path class="st18" d="M478.5,169.6c-6.7,8.8-7,45.6,1.2,47.3"/>
			<g>
				<path class="st19" d="M476.7,167.7c1.1-1,2.7-0.9,3.7,0.2c1,1.1,0.9,2.7-0.2,3.7c-1.1,1-2.7,0.9-3.7-0.2
					C475.5,170.4,475.6,168.7,476.7,167.7z"/>
			</g>
		</g>
	</g>
	<g>
		<g>
			<path class="st18" d="M71.7,197.8c-1.5,3.9-11.1,9.3-14.2,14.5"/>
			<g>
				<path class="st19" d="M69,198.3c-0.2-1.4,0.8-2.8,2.2-3c1.4-0.2,2.8,0.8,3,2.2c0.2,1.4-0.8,2.8-2.2,3
					C70.6,200.8,69.2,199.8,69,198.3z"/>
			</g>
		</g>
	</g>
	<g>
		<g>
			<path class="st18" d="M436.4,141.1c11,0,35.1-6.9,37.1-16.3"/>
			<g>
				<circle class="st19" cx="436.5" cy="141" r="2.6"/>
			</g>
		</g>
	</g>
	<g>
		<g>
			<path class="st18" d="M83.1,152.7c-7.6-5-13.5-12.9-13.8-18.4"/>
			<g>
				<path class="st19" d="M84.4,150.4c1.2,0.8,1.6,2.4,0.8,3.6c-0.8,1.2-2.4,1.6-3.6,0.8c-1.2-0.8-1.6-2.4-0.8-3.6
					C81.6,150,83.2,149.6,84.4,150.4z"/>
			</g>
		</g>
	</g>
	<g>
		<g>
			<path class="st18" d="M293,170.3c-7.9,7.6-15.8,37.4-5.1,65.4"/>
			<g>
				<path class="st19" d="M291.4,168.2c1.2-0.9,2.8-0.6,3.7,0.6c0.9,1.2,0.6,2.8-0.6,3.7c-1.2,0.9-2.8,0.6-3.7-0.6
					S290.2,169.1,291.4,168.2z"/>
			</g>
		</g>
	</g>
	<g>
		<g>
			<path class="st18" d="M431.5,180.4c-6,2.3-22.1-0.3-22.1,5.1"/>
			<g>
				<path class="st19" d="M429.8,178.3c1.2-0.8,2.8-0.6,3.7,0.6c0.8,1.2,0.6,2.8-0.6,3.7c-1.2,0.8-2.8,0.6-3.7-0.6
					C428.4,180.8,428.6,179.1,429.8,178.3z"/>
			</g>
		</g>
	</g>
	<g>
		<g>
			<path class="st18" d="M59.5,150.3c-3.2,4.6-10.3,5.2-10.9,13.6"/>
			<g>
				<path class="st19" d="M57,149.2c0.7-1.3,2.3-1.8,3.6-1.1c1.3,0.7,1.8,2.3,1.1,3.6c-0.7,1.3-2.3,1.8-3.6,1.1
					C56.9,152.1,56.4,150.5,57,149.2z"/>
			</g>
		</g>
	</g>
	<rect x="244.4" y="235.8" class="st20" width="95.6" height="11.9"/>
	<text transform="matrix(1 0 0 1 250.0654 244.2477)" class="st19 st5 st6">Time widget updated</text>
	<text transform="matrix(1 0 0 1 36.4543 234.8258)" class="st19 st5 st6">In the future</text>
	<text transform="matrix(1 0 0 1 100.6253 234.4354)" class="st21"><tspan x="0" y="0" class="st19 st5 st6">in 9 mins or</tspan><tspan x="46.9" y="0" class="st19 st5 st6"> </tspan><tspan x="0" y="10.8" class="st19 st5 st6">&lt; 5 mins ago</tspan></text>
	<text transform="matrix(1 0 0 1 168.9319 234.8258)" class="st21"><tspan x="0" y="0" class="st19 st5 st6">In the past</tspan><tspan x="0" y="10.8" class="st19 st5 st6">or no default</tspan></text>
	<rect x="145.7" y="55" class="st20" width="100.4" height="11.9"/>
	<rect x="164.9" y="85.1" class="st20" width="88.3" height="11.9"/>
	<text transform="matrix(1 0 0 1 151.3148 63.4639)" class="st19 st5 st6">Last sat comms </text>
	<text transform="matrix(1 0 0 1 170.5626 93.5899)" class="st19 st5 st6">Last cell comms </text>
	<rect x="28.4" y="72.2" class="st20" width="82.7" height="25.4"/>
	<text transform="matrix(1 0 0 1 33.0229 82.2377)" class="st21"><tspan x="0" y="0" class="st19 st5 st6">Start time and age</tspan><tspan x="0" y="10.8" class="st19 st5 st6">of data log</tspan></text>
	<rect x="293.5" y="91.1" class="st20" width="59.6" height="11.9"/>
	<text transform="matrix(1 0 0 1 298.588 99.9923)" class="st19 st5 st6">Last GPS fix</text>
	<text transform="matrix(1 0 0 1 273.2951 131.2306)" class="st21"><tspan x="0" y="0" class="st19 st5 st6">Battery level</tspan><tspan x="0" y="10.8" class="st19 st5 st6">13.5 to 16.5v</tspan></text>
	<rect x="265.8" y="121.7" class="st20" width="59.6" height="24.8"/>
	<text transform="matrix(1 0 0 1 268.3311 131.2306)" class="st21"><tspan x="0" y="0" class="st19 st5 st6">Battery level</tspan><tspan x="0" y="10.8" class="st19 st5 st6">13.5 to 16.5v</tspan></text>
	<rect x="124.1" y="137.7" class="st20" width="61.1" height="24.8"/>
	<text transform="matrix(1 0 0 1 127.6565 147.2306)" class="st21"><tspan x="0" y="0" class="st19 st5 st6">Black spots =</tspan><tspan x="0" y="10.8" class="st19 st5 st6">bad battery</tspan></text>
	<rect x="20" y="121.4" class="st20" width="85.8" height="13.9"/>
	<rect x="18.5" y="162" class="st20" width="85.8" height="13.9"/>
	<text transform="matrix(1 0 0 1 22.4912 130.9908)" class="st19 st5 st6">Commanded speed</text>
	<text transform="matrix(1 0 0 1 21.0029 171.573)" class="st19 st5 st6">Thruster Servo error</text>
	<rect x="170.7" y="190.2" class="st20" width="95.6" height="11.9"/>
	<text transform="matrix(1 0 0 1 184.2473 199.1399)" class="st19 st5 st6">OK or      </text>
	<rect x="173.9" y="191.9" class="st9" width="8.9" height="8.2"/>
	<rect x="211.4" y="191.9" class="st7" width="8.9" height="8.2"/>
	<text transform="matrix(1 0 0 1 224.7519 199.1396)" class="st19 st5 st6">dropped</text>
	<text transform="matrix(1 0 0 1 314.0085 40.2036)" class="st19 st5 st6">(mission timeout, nextcomm, speed not reliable)</text>
	<text transform="matrix(1 0 0 1 332.19 203.8692)" class="st19 st5 st25">ok </text>
	<text transform="matrix(1 0 0 1 330.6996 215.6415)" class="st19 st5 st25">medium</text>
	<text transform="matrix(1 0 0 1 330.6975 226.992)" class="st19 st5 st25">high &gt; .6</text>
	<rect x="382" y="184.8" class="st20" width="39.1" height="47.1"/>
	<rect x="388.8" y="220.4" class="st23" width="28.6" height="8.4"/>
	<rect x="388.8" y="208.2" class="st11" width="28.6" height="10"/>
	<rect x="388.8" y="196.7" class="st24" width="28.6" height="9.2"/>
	<text transform="matrix(1 0 0 1 385.5184 193.2434)" class="st21"><tspan x="0" y="0" class="st19 st5 st6">DVL:   </tspan><tspan x="0" y="11.2" class="st19 st5 st6">    </tspan><tspan x="10" y="11.2" class="st19 st5 st25">        </tspan></text>
	<text transform="matrix(1 0 0 1 394.3276 203.8692)" class="st19 st5 st25">On</text>
	<text transform="matrix(1 0 0 1 394.3275 215.6415)" class="st19 st5 st25">Off</text>
	<text transform="matrix(1 0 0 1 394.3273 227.4888)" class="st19 st5 st25">Error</text>
</g>
</svg>
