<?xml version="1.0" encoding="utf-8"?>
<!-- Generator: Adobe Illustrator 25.4.5, SVG Export Plug-In . SVG Version: 6.00 Build 0)  -->
<svg version="1.1" id="Layer_1" xmlns="http://www.w3.org/2000/svg" xmlns:xlink="http://www.w3.org/1999/xlink" x="0px" y="0px"
	 viewBox="0 0 540.8 258.4" style="enable-background:new 0 0 540.8 258.4;" xml:space="preserve">
<style type="text/css">
	.st0{fill:#FFFFFF;stroke:#000000;}
	.st1{fill:#CFDEE2;}
	.st2{fill:none;stroke:#000000;}
	.st3{fill:none;}
	.st4{fill:#D4D2D2;stroke:#000000;}
	.st5{font-family:'HelveticaNeue-Medium';}
	.st6{font-size:9px;}
	.st7{fill:#EF9D30;stroke:#000000;}
	.st8{fill:none;stroke:#000000;stroke-linecap:round;}
	.st9{fill:#5AC1A4;stroke:#000000;}
	.st10{fill:#5AC1A4;}
	.st11{fill:#FFE850;stroke:#000000;}
	.st12{fill:#606060;}
	.st13{font-size:7px;}
	.st14{font-size:11px;}
	.st15{font-size:6px;}
	.st16{fill:#929090;}
	.st17{fill:none;stroke:#117DA8;stroke-miterlimit:10;}
	.st18{fill:#117DA8;}
	.st19{fill:#7DA6D8;}
	.st20{fill:#CFF2FF;stroke:#117DA8;stroke-miterlimit:10;}
	.st21{fill:#EF9D30;}
	.st22{fill:#EF9D30;stroke:#000000;stroke-width:0.7;}
	.st23{fill:#5AC1A4;stroke:#000000;stroke-width:0.7;}
	.st24{font-size:8px;}
	.st25{enable-background:new    ;}
	.st26{fill:#B4372D;}
	.st27{font-family:'HelveticaNeue';}
	.st28{fill:#AAAAAA;stroke:#000000;}
	.st29{fill:#FFE850;}
</style>
<g id="Layer_1_00000015347750113019276860000013055904778347995819_">
	<rect x="13.2" y="49.1" class="st0" width="514.1" height="156.1"/>
	<g transform="translate(0 8)">
		<g>
			<path class="st1" d="M526.9,87.1v108.7H12.7V84.3l5.4,1c10.6-1,15.7-8,15.7-8l0.2,0.2c0,0,3.2,10.8,14.5,10.3
				C59.9,87.4,67,76.7,67,76.7s3.2,9.6,16.8,9.1s15-8,15-8s3.9,9.6,16,9.1s16.5-9.2,16.5-9.2s3.9,8.4,14.5,7.5c10.6-1,15.7-8,15.7-8
				s3.1,8.9,11.6,8.9s16-8.4,16-8.4s3.2,10.8,14.5,10.3c11.4-0.5,18.5-11.1,18.5-11.1s3.2,9.6,16.8,9.1s15-8,15-8s3.9,9.6,16,9.1
				s16.5-9.2,16.5-9.2s3.9,8.4,14.5,7.5c10.6-1,15.7-8,15.7-8l0.2,0.2c0,0,3.2,10.8,14.5,10.3c11.3-0.4,18.4-11.1,18.4-11.1
				s3.2,9.6,16.8,9.1s15-8,15-8s4,9.6,16,9.1c12.1-0.5,16.5-9.2,16.5-9.2s3.9,8.4,14.5,7.5c10.6-1,15.7-5.7,15.7-5.7s5,9,16.3,8.5
				c11.4-0.5,18.5-11.2,18.5-11.2s3.2,9.6,16.8,9.1s15-8,15-8S514.8,87.5,526.9,87.1"/>
		</g>
	</g>
	<rect x="13.2" y="49.1" class="st2" width="514.1" height="156.1"/>
	<line class="st3" x1="137" y1="179.6" x2="155" y2="169.1"/>
	<path class="st3" d="M23.3,210.5c0,0,7.4-8.9,20.8-8.9s20.9,8.9,42.1,8.9s29.8-19,47.7-28.9"/>
	<path class="st4" d="M440.8,179.5H161.5v-60.4h279.3c16.7,0,30.2,13.5,30.2,30.2l0,0C471,166,457.5,179.5,440.8,179.5z"/>
	<polygon class="st0" points="41.1,156.9 161.5,179.5 161.5,119.1 41.1,141.7 	"/>
	<polygon class="st0" points="141.7,122.8 130.3,124.8 131,71.2 142.2,68.2 	"/>
	<text transform="matrix(1 0 0 1 131.2485 141.3537)" class="st5 st6">HW</text>
	<text transform="matrix(1 0 0 1 131.2485 154.3537)" class="st5 st6">SW</text>
	<text transform="matrix(1 0 0 1 131.2485 167.3537)" class="st5 st6">OT</text>
	<circle class="st0" cx="153.2" cy="138.4" r="4"/>
	<circle class="st0" cx="153.2" cy="151.4" r="4"/>
	<circle class="st0" cx="153.2" cy="164.4" r="4"/>
	<rect x="171" y="169.8" class="st7" width="24.4" height="9.5"/>
	<g>
		<line class="st8" x1="361.6" y1="143.5" x2="361.6" y2="155.1"/>
		<line class="st8" x1="354.8" y1="155.7" x2="368.4" y2="155.7"/>
		<line class="st8" x1="356.2" y1="157.9" x2="367.1" y2="157.9"/>
		<line class="st8" x1="357.5" y1="160.2" x2="365.7" y2="160.2"/>
	</g>
	<line class="st8" x1="358.8" y1="162.4" x2="364.4" y2="162.4"/>
	<circle class="st9" cx="61.8" cy="149" r="8.1"/>
	<g>
		<circle class="st9" cx="195.2" cy="128.7" r="4"/>
		<circle class="st9" cx="205.2" cy="128.7" r="4"/>
		<circle class="st9" cx="215.2" cy="128.7" r="4"/>
		<circle class="st9" cx="225.2" cy="128.7" r="4"/>
		<circle class="st9" cx="235.2" cy="128.7" r="4"/>
		<circle class="st9" cx="245.2" cy="128.7" r="4"/>
		<ellipse transform="matrix(0.1602 -0.9871 0.9871 0.1602 87.2834 359.9893)" class="st7" cx="255.2" cy="128.7" rx="4" ry="4"/>
	</g>
	<circle class="st10" cx="321.2" cy="70.4" r="2"/>
	<circle class="st3" cx="321.2" cy="80.9" r="1.6"/>
	<circle class="st9" cx="24.7" cy="182.9" r="2"/>
	<circle class="st9" cx="24.7" cy="193.4" r="2"/>
	<rect x="147.7" y="70.3" class="st11" width="24.4" height="11.5"/>
	<rect x="146.4" y="99.6" class="st11" width="26.4" height="11.3"/>
	<rect x="294" y="109.1" class="st9" width="26.9" height="10.2"/>
	<rect x="222.5" y="149.1" class="st9" width="25.5" height="10.5"/>
	<rect x="222.5" y="137.2" class="st9" width="25.5" height="10.5"/>
	<rect x="171" y="169.8" class="st7" width="24.4" height="9.5"/>
	<rect x="146.4" y="99.6" class="st11" width="26.4" height="11.3"/>
	<rect x="222.5" y="137.2" class="st9" width="25.5" height="10.5"/>
	<rect x="366.2" y="141.4" class="st9" width="24.4" height="10.5"/>
	<polygon class="st11" points="428.2,174.6 439.7,174.6 445.2,183.1 427.8,183.1 	"/>
	<ellipse class="st3" cx="396.4" cy="185.8" rx="5.9" ry="5.9"/>
	<circle class="st9" cx="430.2" cy="127.2" r="4.1"/>
	<circle class="st9" cx="430.2" cy="139.1" r="4.1"/>
	<circle class="st9" cx="430.2" cy="151" r="4.1"/>
	<text transform="matrix(1 0 0 1 368.2485 73.3537)" class="st12 st5 st6">profile_station - 11:28 • 18Jul20</text>
	<text transform="matrix(1 0 0 1 148.4956 108.6786)" class="st5 st6">11:31</text>
	<text transform="matrix(1 0 0 1 148.4963 79.4791)" class="st5 st6">11:32</text>
	<text transform="matrix(1 0 0 1 296.3491 117.0336)" class="st5 st6">11:28</text>
	<text transform="matrix(1 0 0 1 484.2485 137.3537)" class="st5 st6">226°</text>
	<text transform="matrix(1 0 0 1 484.2485 163.6742)" class="st5 st6">0.7km/hr</text>
	<text transform="matrix(1 0 0 1 81.2485 185.7436)" class="st5 st6">12:32 - in 42m</text>
	<text transform="matrix(1 0 0 1 81.2485 196.5436)" class="st5 st6">15:28 - in 3h 38m</text>
	<text transform="matrix(1 0 0 1 225.2485 78.5761)" class="st12 st5 st13">17m ago</text>
	<text transform="matrix(1 0 0 1 71.2485 108.9576)" class="st5 st6">15:35</text>
	<text transform="matrix(1 0 0 1 71.2485 118.5761)" class="st12 st5 st13">20h 14m ago</text>
	<text transform="matrix(1 0 0 1 228.2485 108.5761)" class="st12 st5 st13">18m ago</text>
	<text transform="matrix(1 0 0 1 224.2485 145.3468)" class="st5 st6">16.3</text>
	<text transform="matrix(1 0 0 1 224.2485 157.8454)" class="st5 st6">338.0</text>
	<text transform="matrix(1 0 0 1 216.2485 167.3537)" class="st12 st5 st13">5h 41m ago</text>
	<text transform="matrix(1 0 0 1 225.8867 187.2882)" class="st12 st5 st13">20:55</text>
	<text transform="matrix(1 0 0 1 365.6113 138.3473)" class="st12 st5 st13">2h 13m ago</text>
	<text transform="matrix(1 0 0 1 367.2485 113.8537)" class="st12 st5 st13">21m ago</text>
	<text transform="matrix(1 0 0 1 368.2485 149.851)" class="st5 st6">OK</text>
	<text transform="matrix(1 0 0 1 84.3098 157.3537)" class="st12 st5 st13">1.0m/s</text>
	<text transform="matrix(1 0 0 1 286.2485 142.0872)" class="st5 st14">BRIZO</text>
	<text transform="matrix(1 0 0 1 292.2485 167.3537)" class="st5 st14">11:50</text>
	<text transform="matrix(1 0 0 1 485.2485 181.3537)" class="st12 st5 st15">0.4km in 0.6h</text>
	<text transform="matrix(1 0 0 1 325.2485 73.3537)" class="st5 st6">MISSION:</text>
	<text transform="matrix(1 0 0 1 290.2485 155.3537)" class="st12 st5 st13">UPDATED:</text>
	<g>
		<circle cx="195.2" cy="128.7" r="2"/>
		<circle cx="215.2" cy="128.7" r="2"/>
		<circle cx="235.2" cy="128.7" r="2"/>
		<ellipse transform="matrix(0.1602 -0.9871 0.9871 0.1602 87.2834 359.9893)" cx="255.2" cy="128.7" rx="2" ry="2"/>
		<text transform="matrix(1 0 0 1 171.2485 129.3537)" class="st12 st5 st13">BAD</text>
		<text transform="matrix(1 0 0 1 171.2485 136.3537)" class="st12 st5 st13">CELL</text>
	</g>
	<text transform="matrix(1 0 0 1 485.2485 174.3537)" class="st12 st5 st15">reckoned</text>
	<text transform="matrix(1 0 0 1 85.2485 162.3537)" class="st12 st5 st15">command</text>
	<text transform="matrix(1 0 0 1 194.8884 145.6178)" class="st5 st6">Volts:</text>
	<text transform="matrix(1 0 0 1 191.0276 157.7702)" class="st5 st6">AmpH:</text>
	<text transform="matrix(1 0 0 1 171.2485 187.3537)" class="st12 st5 st13">DROP WEIGHT</text>
	<text transform="matrix(1 0 0 1 428.7363 192.0028)" class="st12 st5 st13">OFF</text>
	<text transform="matrix(1 0 0 1 29.7937 185.7436)" class="st5 st6">NextComm:</text>
	<text transform="matrix(1 0 0 1 29.2485 196.5436)" class="st5 st6">Timeout: </text>
	<g>
		<text transform="matrix(1 0 0 1 371.2485 160.3537)" class="st12 st5 st13">GROUND</text>
		<text transform="matrix(1 0 0 1 371.2485 168.3537)" class="st12 st5 st13">FAULT</text>
	</g>
	<text transform="matrix(1 0 0 1 426.344 170.8031)" class="st5 st6">DVL</text>
	<text transform="matrix(1 0 0 1 437.3228 131.0304)" class="st5 st6">CTD</text>
	<text transform="matrix(1 0 0 1 437.3228 142.9301)" class="st5 st6">UBAT</text>
	<text transform="matrix(1 0 0 1 437.3228 154.8298)" class="st5 st6">FLOW</text>
	<text transform="matrix(1 0 0 1 325.5999 114.2191)" class="st5 st6">Last GPS</text>
	<text transform="matrix(1 0 0 1 175.7026 78.5761)" class="st5 st6">Sat comms</text>
	<text transform="matrix(1 0 0 1 177.8984 108.9576)" class="st5 st6">Cell comms</text>
	<text transform="matrix(1 0 0 1 30.2485 108.9576)" class="st5 st6">Log start:</text>
	<text transform="matrix(1 0 0 1 80.2151 147.9057)" class="st5 st6">Thruster</text>
	<g>
		
			<rect x="486.7" y="141.7" transform="matrix(0.7725 -0.635 0.635 0.7725 19.8273 345.7652)" class="st16" width="11.7" height="7"/>
		<g>
			<polygon class="st16" points="478.4,156.8 487.4,140.3 488.7,148.4 496.4,151.2 			"/>
		</g>
	</g>
	<path class="st17" d="M316.3,70.4C302.6,37.3,337,37,344.4,31.5"/>
	<g>
		<g>
			<g>
				<path class="st18" d="M363,145.3c1.3-0.6,2.9,0,3.5,1.3s0,2.9-1.3,3.5s-2.9,0-3.5-1.3C361,147.5,361.6,145.9,363,145.3z"/>
			</g>
			<path class="st17" d="M364.2,147.6c-9.1,4.1-24.4,12.4-24.4,37.2"/>
		</g>
	</g>
	<circle class="st17" cx="320.9" cy="70.4" r="5.1"/>
</g>
<g transform="translate(119.3 -107.2)">
	<path class="st19" d="M307.8,284v2.2H76.2v-3.1l2.4,0.3c4.8-0.3,7.1-2.8,7.1-2.8l0.1,0.1c0,0,1.4,3.7,6.6,3.6
		c5.1-0.1,8.3-3.8,8.3-3.8s1.4,3.3,7.6,3.1s6.8-2.8,6.8-2.8s1.8,3.3,7.2,3.1c5.5-0.2,7.4-3.2,7.4-3.2s1.8,2.9,6.5,2.6
		c4.8-0.3,7.1-2.8,7.1-2.8s1.4,3.1,5.2,3.1c3.8,0,7.2-2.9,7.2-2.9s1.4,3.7,6.6,3.6c5.1-0.1,8.3-3.8,8.3-3.8s1.4,3.3,7.6,3.1
		s6.8-2.8,6.8-2.8s1.8,3.3,7.2,3.1c5.5-0.2,7.4-3.2,7.4-3.2s1.8,2.9,6.5,2.6c4.8-0.3,7.1-2.8,7.1-2.8l0.1,0.1c0,0,1.4,3.7,6.6,3.6
		c5.1-0.1,8.3-3.8,8.3-3.8s1.4,3.3,7.6,3.1c6.1-0.2,6.8-2.8,6.8-2.8s1.8,3.3,7.2,3.1c5.5-0.2,7.4-3.2,7.4-3.2s1.8,2.9,6.5,2.6
		c4.8-0.3,7.1-2,7.1-2s2.3,3.1,7.4,2.9s8.3-3.8,8.3-3.8s1.4,3.3,7.6,3.1c6.1-0.2,6.8-2.8,6.8-2.8s1.8,3.3,7.3,3.1"/>
</g>
<g id="Layer_2_00000166634407880194734030000015502369726448603821_">
	<rect x="433.6" y="216.9" class="st20" width="93.4" height="34.6"/>
	<rect x="316.9" y="184.8" class="st20" width="51.5" height="47.1"/>
	<rect x="344.3" y="8.5" class="st20" width="177.9" height="35.4"/>
	<rect x="365.7" y="53.2" class="st20" width="61.5" height="10.8"/>
	<rect x="430.8" y="75.2" class="st20" width="79.1" height="10.8"/>
	<rect x="440.2" y="105.6" class="st20" width="83.3" height="10.8"/>
	<text transform="matrix(1 0 0 1 434.6487 83.5911)" class="st18 st5 st6">Mission start time</text>
	<text transform="matrix(1 0 0 1 19.1772 34.0609)" class="st18 st5 st14">LEGEND FOR AUV WIDGET</text>
	<text transform="matrix(1 0 0 1 440.2324 225.3584)" class="st18 st5 st6">Speed and Heading</text>
	<text transform="matrix(1 0 0 1 440.2324 236.1584)" class="st18 st5 st6">estimated from last</text>
	<text transform="matrix(1 0 0 1 440.2324 246.9584)" class="st18 st5 st6">two GPS fixes</text>
	<text transform="matrix(1 0 0 1 368.3982 62.1027)" class="st18 st5 st6">Mission name</text>
	<rect x="347.8" y="120.7" class="st20" width="63" height="10.8"/>
	<text transform="matrix(1 0 0 1 351.7761 129.1205)" class="st18 st5 st6">Last GF scan</text>
	<text transform="matrix(1 0 0 1 442.3032 113.9561)" class="st18 st5 st6">UBAT on &amp; flow OK</text>
	<text transform="matrix(1 0 0 1 355.8777 18.7944)" class="st18 st5 st6">Mission found in default list</text>
	<text transform="matrix(1 0 0 1 355.8777 30.2301)" class="st18 st5 st6">Mission not in default list  </text>
	<circle class="st10" cx="350.5" cy="15.5" r="2"/>
	<circle class="st21" cx="350.5" cy="27.5" r="2"/>
	<rect x="15.8" y="212.4" class="st20" width="212.5" height="39.1"/>
	<text transform="matrix(1 0 0 1 27.29 222.6425)" class="st18 st5 st6">Predicted next comm and Mission Timeout:</text>
	<circle class="st9" cx="30.7" cy="232" r="2"/>
	<circle class="st11" cx="95.3" cy="232" r="2"/>
	<circle class="st7" cx="162.9" cy="232" r="2"/>
	<rect x="326.7" y="220.4" class="st22" width="38.1" height="8.4"/>
	<rect x="326.7" y="208.2" class="st11" width="38.1" height="10"/>
	<rect x="326.7" y="196.7" class="st23" width="38.1" height="9.2"/>
	<text transform="matrix(1 0 0 1 320.3982 193.2434)" class="st18 st5 st6">GF:   </text>
	<text transform="matrix(1 0 0 1 320.3982 204.4434)" class="st18 st5 st6">    </text>
	<text transform="matrix(1 0 0 1 330.3982 204.4434)" class="st18 st5 st24">        </text>
	<g>
		<g>
			<path class="st17" d="M478.5,162.6c-6.7,8.8-7,52.6,1.2,54.3"/>
			<g>
				<path class="st18" d="M476.7,160.7c1.1-1,2.7-0.9,3.7,0.2c1,1.1,0.9,2.7-0.2,3.7s-2.7,0.9-3.7-0.2
					C475.5,163.4,475.6,161.7,476.7,160.7z"/>
			</g>
		</g>
	</g>
	<g>
		<g>
			<path class="st17" d="M71.7,197.8c-1.5,3.9-11.1,9.3-14.2,14.5"/>
			<g>
				<path class="st18" d="M69,198.3c-0.2-1.4,0.8-2.8,2.2-3c1.4-0.2,2.8,0.8,3,2.2s-0.8,2.8-2.2,3C70.6,200.8,69.2,199.8,69,198.3z"
					/>
			</g>
		</g>
	</g>
	<g>
		<g>
			<path class="st17" d="M437.6,146.1c11,0,38.9-20.1,40.9-29.5"/>
			<g>
				<circle class="st18" cx="436.7" cy="146" r="2.6"/>
			</g>
		</g>
	</g>
	<g>
		<g>
			<path class="st17" d="M83.1,152.7c-7.6-5-13.5-12.9-13.8-18.4"/>
			<g>
				<path class="st18" d="M84.4,150.4c1.2,0.8,1.6,2.4,0.8,3.6c-0.8,1.2-2.4,1.6-3.6,0.8s-1.6-2.4-0.8-3.6
					C81.6,150,83.2,149.6,84.4,150.4z"/>
			</g>
		</g>
	</g>
	<g>
		<g>
			<g>
				<path class="st18" d="M290.1,175.3c1.2-0.9,2.8-0.6,3.7,0.6c0.9,1.2,0.6,2.8-0.6,3.7s-2.8,0.6-3.7-0.6S288.9,176.2,290.1,175.3z
					"/>
			</g>
		</g>
	</g>
	<g>
		<g>
			<path class="st17" d="M431.5,180.4c-9.7,3.1-22.1-0.3-22.1,5.1"/>
			<g>
				<path class="st18" d="M429.8,178.3c1.2-0.8,2.8-0.6,3.7,0.6c0.8,1.2,0.6,2.8-0.6,3.7c-1.2,0.8-2.8,0.6-3.7-0.6
					C428.4,180.8,428.6,179.1,429.8,178.3z"/>
			</g>
		</g>
	</g>
	<g>
		<g>
			<path class="st17" d="M428.8,129.1c-16,4.4-21,51.8-21,57.2"/>
			<g>
				<path class="st18" d="M427.1,127c1.2-0.8,2.8-0.6,3.7,0.6c0.8,1.2,0.6,2.8-0.6,3.7c-1.2,0.8-2.8,0.6-3.7-0.6
					C425.7,129.5,425.9,127.8,427.1,127z"/>
			</g>
		</g>
	</g>
	<g>
		<g>
			<path class="st17" d="M59.5,150.3c-3.2,4.6-10.3,5.2-10.9,13.6"/>
			<g>
				<path class="st18" d="M57,149.2c0.7-1.3,2.3-1.8,3.6-1.1s1.8,2.3,1.1,3.6s-2.3,1.8-3.6,1.1C56.9,152.1,56.4,150.5,57,149.2z"/>
			</g>
		</g>
	</g>
	<rect x="235.5" y="216.8" class="st20" width="64.9" height="31.6"/>
	<text transform="matrix(1 0 0 1 240.6965 225.4945)" class="st25"><tspan x="0" y="0" class="st18 st5 st6">Current draw </tspan><tspan x="9.7" y="8.4" class="st18 st5 st13">(avg last 3)</tspan></text>
	<path class="st17" d="M290.9,178.5c-7.9,7.6,12.5,31.7,23.2,59.7"/>
	<rect x="309.4" y="238" class="st20" width="68" height="11.9"/>
	<text transform="matrix(1 0 0 1 314.0442 247.4518)" class="st18 st5 st6">Leak detected</text>
	<text transform="matrix(1 0 0 1 36.4543 234.8258)" class="st18 st5 st6">In the future</text>
	<text transform="matrix(1 0 0 1 100.6252 234.4354)" class="st18 st5 st6">in 9 mins or</text>
	<text transform="matrix(1 0 0 1 147.5254 234.4354)" class="st18 st5 st6"> </text>
	<text transform="matrix(1 0 0 1 100.6252 245.2354)" class="st18 st5 st6">&lt; 5 mins ago</text>
	<text transform="matrix(1 0 0 1 168.9319 234.8258)" class="st18 st5 st6">In the past</text>
	<text transform="matrix(1 0 0 1 168.9319 245.6258)" class="st18 st5 st6">or no default</text>
	<rect x="173.9" y="58.3" class="st20" width="78.1" height="11.9"/>
	<rect x="164.9" y="85.1" class="st20" width="88.3" height="11.9"/>
	<text transform="matrix(1 0 0 1 179.5007 66.8127)" class="st18 st5 st6">Last sat comms </text>
	<text transform="matrix(1 0 0 1 170.5625 93.5899)" class="st18 st5 st6">Last cell comms </text>
	<rect x="28.4" y="72.2" class="st20" width="82.7" height="25.4"/>
	<text transform="matrix(1 0 0 1 33.0229 82.2377)" class="st18 st5 st6">Start time and age</text>
	<text transform="matrix(1 0 0 1 33.0229 93.0377)" class="st18 st5 st6">of data log</text>
	<rect x="293.5" y="91.1" class="st20" width="59.6" height="11.9"/>
	<text transform="matrix(1 0 0 1 298.5879 99.9923)" class="st18 st5 st6">Last GPS fix</text>
	<text transform="matrix(1 0 0 1 273.2952 131.2306)" class="st18 st5 st6">Battery level</text>
	<text transform="matrix(1 0 0 1 273.2952 142.0306)" class="st18 st5 st6">13.5 to 16.5v</text>
	<rect x="265.8" y="121.7" class="st20" width="59.6" height="24.8"/>
	<text transform="matrix(1 0 0 1 268.3311 131.2306)" class="st18 st5 st6">Battery level</text>
	<text transform="matrix(1 0 0 1 268.3311 142.0306)" class="st18 st5 st6">13.5 to 16.5v</text>
	<rect x="124.1" y="137.7" class="st20" width="65" height="24.8"/>
	<text transform="matrix(1 0 0 1 127.6565 147.2306)" class="st18 st5 st6">Black spots =</text>
	<text transform="matrix(1 0 0 1 127.6565 158.0306)" class="st18 st5 st24">bad battery cell</text>
	<rect x="20" y="121.4" class="st20" width="85.8" height="13.9"/>
	<rect x="18.5" y="162" class="st20" width="85.8" height="13.9"/>
	<text transform="matrix(1 0 0 1 22.4912 130.9908)" class="st18 st5 st6">Commanded speed</text>
	<text transform="matrix(1 0 0 1 21.0029 171.573)" class="st18 st5 st6">Thruster Servo error</text>
	<rect x="170.7" y="190.2" class="st20" width="95.6" height="11.9"/>
	<text transform="matrix(1 0 0 1 184.2473 199.1399)" class="st18 st5 st6">OK or      </text>
	<rect x="173.9" y="191.9" class="st9" width="8.9" height="8.2"/>
	<rect x="211.4" y="191.9" class="st7" width="8.9" height="8.2"/>
	<text transform="matrix(1 0 0 1 224.752 199.1396)" class="st18 st5 st6">dropped</text>
	<text transform="matrix(1 0 0 1 360.334 39.9245)" class="st18 st5 st13">(mission timeout, nextcomm, speed not reliable)</text>
	<text transform="matrix(1 0 0 1 330.1899 203.8692)" class="st18 st5 st24">ok </text>
	<text transform="matrix(1 0 0 1 328.6997 215.6415)" class="st18 st5 st24">0.08 - 0.2</text>
	<rect x="247.8" y="236.9" class="st11" width="39.1" height="10"/>
	<text transform="matrix(1 0 0 1 251.7695 244.3856)" class="st18 st5 st24">1.5 to 2.1</text>
	<text transform="matrix(1 0 0 1 328.6975 226.992)" class="st18 st5 st24">high &gt; .2</text>
	<rect x="382" y="184.8" class="st20" width="39.1" height="47.1"/>
	<rect x="388.8" y="220.4" class="st22" width="28.6" height="8.4"/>
	<rect x="388.8" y="208.2" class="st11" width="28.6" height="10"/>
	<rect x="388.8" y="196.7" class="st23" width="28.6" height="9.2"/>
	<text transform="matrix(1 0 0 1 385.5183 193.2434)" class="st25"><tspan x="0" y="0" class="st18 st5 st13">DVL+CTD</tspan><tspan x="31.8" y="0" class="st18 st5 st6">   </tspan></text>
	<text transform="matrix(1 0 0 1 385.5183 204.4434)" class="st18 st5 st6">    </text>
	<text transform="matrix(1 0 0 1 395.5183 204.4434)" class="st18 st5 st24">        </text>
	<text transform="matrix(1 0 0 1 394.3276 203.8692)" class="st18 st5 st24">On</text>
	<text transform="matrix(1 0 0 1 394.3276 215.6415)" class="st18 st5 st24">Off</text>
	<text transform="matrix(1 0 0 1 394.3274 227.4888)" class="st18 st5 st24">Error</text>
</g>
<text transform="matrix(1 0 0 1 39.9128 63.9369)" class="st26 st27 st24">CRITICAL: Errors in last 4h</text>
<rect x="250.5" y="137.2" class="st28" width="5" height="22"/>
<rect x="251" y="147" class="st29" width="4" height="12"/>
<text transform="matrix(1 0 0 1 257.5178 159.1743)" class="st12 st27 st15">amps</text>
<text transform="matrix(1 0 0 1 257.9521 154.9373)" class="st12 st27 st13">1.8</text>
<g>
	<path class="st18" d="M252.8,152.1c1.2-0.9,2.8-0.6,3.7,0.6c0.9,1.2,0.6,2.8-0.6,3.7s-2.8,0.6-3.7-0.6S251.6,153,252.8,152.1z"/>
</g>
<path class="st17" d="M254.1,152.7c3.6,13.5,33.4,39.9,20.7,64"/>
<g>
	<g>
		<path class="st17" d="M143.8,131.2c-29.6-64.3,21.5-102.3,60-106.5"/>
		<g>
			<path class="st18" d="M142.1,129.1c1.2-0.8,2.8-0.6,3.7,0.6c0.8,1.2,0.6,2.8-0.6,3.7c-1.2,0.8-2.8,0.6-3.7-0.6
				C140.7,131.6,140.9,129.9,142.1,129.1z"/>
		</g>
	</g>
</g>
<rect x="203.8" y="2.4" class="st20" width="78.7" height="44.1"/>
<text transform="matrix(1 0 0 1 211.0442 11.1464)" class="st18 st5 st13">Tailcone dot errors</text>
<text transform="matrix(1 0 0 1 240.4143 23.1335)" class="st18 st5 st24">Hardware</text>
<text transform="matrix(1 0 0 1 240.4143 33.1353)" class="st18 st5 st24">Software</text>
<text transform="matrix(1 0 0 1 240.4141 43.1374)" class="st18 st5 st24">Overload</text>
<text transform="matrix(1 0 0 1 209.374 24.1535)" class="st5 st6">HW</text>
<text transform="matrix(1 0 0 1 209.374 34.1535)" class="st5 st6">SW</text>
<text transform="matrix(1 0 0 1 209.374 44.1535)" class="st5 st6">OT</text>
<circle class="st0" cx="231.3" cy="20.9" r="3.6"/>
<circle class="st0" cx="231.3" cy="31" r="3.6"/>
<circle class="st0" cx="231.3" cy="41.2" r="3.6"/>
</svg>
