<?xml version="1.0" encoding="utf-8"?>
<!-- Generator: Adobe Illustrator 27.2.0, SVG Export Plug-In . SVG Version: 6.00 Build 0)  -->
<svg version="1.1" xmlns="http://www.w3.org/2000/svg" xmlns:xlink="http://www.w3.org/1999/xlink" x="0px" y="0px"
	 viewBox="0 0 540.8 287.7" style="enable-background:new 0 0 540.8 287.7;" xml:space="preserve">
<style type="text/css">
	.st0{fill:#FFFFFF;stroke:#000000;}
	.st1{fill:#CFDEE2;}
	.st2{fill:none;stroke:#000000;}
	.st3{fill:none;stroke:#000000;stroke-width:0.2;}
	.st4{fill:#FFEEBB;}
	.st5{fill:none;}
	.st6{fill:#D4D2D2;stroke:#000000;}
	.st7{font-family:'HelveticaNeue-Medium';}
	.st8{font-size:9px;}
	.st9{fill:#EF9D30;stroke:#000000;}
	.st10{fill:none;stroke:#000000;stroke-linecap:round;}
	.st11{fill:#5AC1A4;stroke:#000000;}
	.st12{fill:#5AC1A4;}
	.st13{fill:#FFE850;stroke:#000000;}
	.st14{fill:#606060;}
	.st15{font-size:7px;}
	.st16{font-size:11px;}
	.st17{font-size:6px;}
	.st18{fill:none;stroke:#117DA8;stroke-miterlimit:10;}
	.st19{fill:#117DA8;}
	.st20{fill:#7DA6D8;}
	.st21{fill:#CFF2FF;stroke:#117DA8;stroke-miterlimit:10;}
	.st22{enable-background:new    ;}
	.st23{fill:#EF9D30;}
	.st24{fill:#EF9D30;stroke:#000000;stroke-width:0.7;}
	.st25{fill:#5AC1A4;stroke:#000000;stroke-width:0.7;}
	.st26{font-size:8px;}
	.st27{font-family:'HelveticaNeue';}
	.st28{fill:#AAAAAA;stroke:#000000;}
	.st29{fill:#FFE850;}
	.st30{fill:#B4372D;}
	.st31{fill:none;stroke:#BBBBBB;stroke-width:0.3;}
	.st32{fill:#549FD4;}
	.st33{fill:#A2A0A0;}
	.st34{fill:#333333;}
	.st35{font-family:'Courier';}
	.st36{fill:#045FAE;stroke:#045FAE;stroke-miterlimit:10;}
	.st37{fill:#FFFFFF;}
</style>
<g id="Layer_2">
	<rect x="13.2" y="50.8" class="st0" width="514.1" height="156.1"/>
	<path class="st1" d="M526.9,96.8v108.7H12.7V94l5.4,1c10.6-1,15.7-8,15.7-8l0.2,0.2c0,0,3.2,10.8,14.5,10.3
		C59.9,97.1,67,86.4,67,86.4s3.2,9.6,16.8,9.1s15-8,15-8s3.9,9.6,16,9.1s16.5-9.2,16.5-9.2s3.9,8.4,14.5,7.5c10.6-1,15.7-8,15.7-8
		s3.1,8.9,11.6,8.9s16-8.4,16-8.4s3.2,10.8,14.5,10.3c11.4-0.5,18.5-11.1,18.5-11.1s3.2,9.6,16.8,9.1s15-8,15-8s3.9,9.6,16,9.1
		s16.5-9.2,16.5-9.2s3.9,8.4,14.5,7.5c10.6-1,15.7-8,15.7-8l0.2,0.2c0,0,3.2,10.8,14.5,10.3c11.3-0.4,18.4-11.1,18.4-11.1
		s3.2,9.6,16.8,9.1s15-8,15-8s4,9.6,16,9.1c12.1-0.5,16.5-9.2,16.5-9.2s3.9,8.4,14.5,7.5c10.6-1,15.7-5.7,15.7-5.7s5,9,16.3,8.5
		c11.4-0.5,18.5-11.2,18.5-11.2s3.2,9.6,16.8,9.1s15-8,15-8S514.8,97.2,526.9,96.8"/>
	<rect x="13.2" y="50.8" class="st2" width="514.1" height="156.1"/>
</g>
<g id="Layer_1">
	<rect x="15.9" y="55" class="st3" width="120" height="20"/>
	<rect x="312.3" y="52.1" class="st4" width="180" height="11.5"/>
	<g id="Layer_1_00000015347750113019276860000013055904778347995819_">
		<line class="st5" x1="137" y1="181.3" x2="155" y2="170.8"/>
		<path class="st5" d="M23.3,212.2c0,0,7.4-8.9,20.8-8.9s20.9,8.9,42.1,8.9s29.8-19,47.7-28.9"/>
		<path class="st6" d="M440.8,181.2H161.5v-60.4h279.3c16.7,0,30.2,13.5,30.2,30.2l0,0C471,167.7,457.5,181.2,440.8,181.2z"/>
		<polygon class="st0" points="41.1,158.6 161.5,181.2 161.5,120.8 41.1,143.4 		"/>
		<text transform="matrix(1 0 0 1 131.2485 143.0732)" class="st7 st8">HW</text>
		<text transform="matrix(1 0 0 1 131.2485 156.0732)" class="st7 st8">SW</text>
		<text transform="matrix(1 0 0 1 131.2485 169.0732)" class="st7 st8">OT</text>
		<circle class="st0" cx="153.2" cy="140.1" r="4"/>
		<circle class="st0" cx="153.2" cy="153.1" r="4"/>
		<circle class="st0" cx="153.2" cy="166.1" r="4"/>
		<rect x="171" y="171.5" class="st9" width="24.4" height="9.5"/>
		<g>
			<line class="st10" x1="361.6" y1="145.2" x2="361.6" y2="156.8"/>
			<line class="st10" x1="354.8" y1="157.4" x2="368.4" y2="157.4"/>
			<line class="st10" x1="356.2" y1="159.6" x2="367.1" y2="159.6"/>
			<line class="st10" x1="357.5" y1="161.9" x2="365.7" y2="161.9"/>
		</g>
		<line class="st10" x1="358.8" y1="164.1" x2="364.4" y2="164.1"/>
		<circle class="st11" cx="61.8" cy="150.7" r="8.1"/>
		<g>
			<circle class="st11" cx="195.2" cy="130.4" r="4"/>
			<circle class="st11" cx="205.2" cy="130.4" r="4"/>
			<circle class="st11" cx="215.2" cy="130.4" r="4"/>
			<circle class="st11" cx="225.2" cy="130.4" r="4"/>
			<circle class="st11" cx="235.2" cy="130.4" r="4"/>
			<circle class="st11" cx="245.2" cy="130.4" r="4"/>
			<ellipse transform="matrix(0.1602 -0.9871 0.9871 0.1602 85.5861 361.4333)" class="st9" cx="255.2" cy="130.4" rx="4" ry="4"/>
		</g>
		<circle class="st12" cx="294.1" cy="72.1" r="2"/>
		<circle class="st5" cx="321.2" cy="82.6" r="1.6"/>
		<circle class="st11" cx="24.7" cy="184.6" r="2"/>
		<circle class="st11" cx="24.7" cy="195.1" r="2"/>
		<rect x="147.7" y="72" class="st13" width="24.4" height="11.5"/>
		<rect x="146.4" y="101.3" class="st13" width="26.4" height="11.3"/>
		<rect x="294" y="110.8" class="st11" width="26.9" height="10.2"/>
		<rect x="222.5" y="150.8" class="st11" width="25.5" height="10.5"/>
		<rect x="222.5" y="138.9" class="st11" width="25.5" height="10.5"/>
		<rect x="171" y="171.5" class="st9" width="24.4" height="9.5"/>
		<rect x="146.4" y="101.3" class="st13" width="26.4" height="11.3"/>
		<rect x="222.5" y="138.9" class="st11" width="25.5" height="10.5"/>
		<rect x="366.2" y="143.1" class="st11" width="24.4" height="10.5"/>
		<polygon class="st13" points="428.2,176.3 439.7,176.3 445.2,184.8 427.8,184.8 		"/>
		<circle class="st11" cx="430.2" cy="128.9" r="4.1"/>
		<circle class="st11" cx="430.2" cy="140.8" r="4.1"/>
		<circle class="st11" cx="430.2" cy="152.7" r="4.1"/>
		<text transform="matrix(1 0 0 1 341.1685 75.0732)" class="st14 st7 st8">profile_station - 11:28 • 18Jul20</text>
		<text transform="matrix(1 0 0 1 148.4956 110.3981)" class="st7 st8">11:31</text>
		<text transform="matrix(1 0 0 1 148.4963 81.1986)" class="st7 st8">11:32</text>
		<text transform="matrix(1 0 0 1 296.3491 118.7531)" class="st7 st8">11:28</text>
		<text transform="matrix(1 0 0 1 81.2485 187.4631)" class="st7 st8">12:32 - in 42m</text>
		<text transform="matrix(1 0 0 1 81.2485 198.2631)" class="st7 st8">15:28 - in 3h 38m</text>
		<text transform="matrix(1 0 0 1 225.2485 80.2956)" class="st14 st7 st15">17m ago</text>
		<text transform="matrix(1 0 0 1 71.2485 110.6771)" class="st7 st8">15:35</text>
		<text transform="matrix(1 0 0 1 33.3142 120.1618)" class="st14 st7 st15">20h 14m ago</text>
		<text transform="matrix(1 0 0 1 228.2485 110.2956)" class="st14 st7 st15">18m ago</text>
		<text transform="matrix(1 0 0 1 224.2485 147.0663)" class="st7 st8">16.3</text>
		<text transform="matrix(1 0 0 1 224.2485 159.5649)" class="st7 st8">338.0</text>
		<text transform="matrix(1 0 0 1 216.2485 169.0732)" class="st14 st7 st15">5h 41m ago</text>
		<text transform="matrix(1 0 0 1 172.1575 195.7347)" class="st14 st7 st15">4h 30m ago</text>
		<text transform="matrix(1 0 0 1 365.6113 140.0668)" class="st14 st7 st15">2h 13m ago</text>
		<text transform="matrix(1 0 0 1 367.2485 115.5732)" class="st14 st7 st15">21m ago</text>
		<text transform="matrix(1 0 0 1 368.2485 151.5705)" class="st7 st8">OK</text>
		<text transform="matrix(1 0 0 1 84.3098 159.0732)" class="st14 st7 st15">1.0m/s</text>
		<text transform="matrix(1 0 0 1 286.2485 143.8067)" class="st7 st16">BRIZO</text>
		<text transform="matrix(1 0 0 1 292.2485 169.0732)" class="st7 st16">11:50</text>
		<text transform="matrix(1 0 0 1 298.1685 75.0732)" class="st7 st8">MISSION:</text>
		<text transform="matrix(1 0 0 1 290.2485 157.0732)" class="st14 st7 st15">UPDATED:</text>
		<g>
			<circle cx="195.2" cy="130.4" r="2"/>
			<circle cx="215.2" cy="130.4" r="2"/>
			<circle cx="235.2" cy="130.4" r="2"/>
			<ellipse transform="matrix(0.1602 -0.9871 0.9871 0.1602 85.5861 361.4334)" cx="255.2" cy="130.4" rx="2" ry="2"/>
			<text transform="matrix(1 0 0 1 171.2485 131.0732)" class="st14 st7 st15">BAD</text>
			<text transform="matrix(1 0 0 1 171.2485 138.0732)" class="st14 st7 st15">CELL</text>
		</g>
		<text transform="matrix(1 0 0 1 85.2485 164.0732)" class="st14 st7 st17">command</text>
		<text transform="matrix(1 0 0 1 194.8884 147.3373)" class="st7 st8">Volts:</text>
		<text transform="matrix(1 0 0 1 191.0276 159.4897)" class="st7 st8">AmpH:</text>
		<text transform="matrix(1 0 0 1 171.2485 189.0732)" class="st14 st7 st15">DROP WEIGHT</text>
		<text transform="matrix(1 0 0 1 428.7363 193.7223)" class="st14 st7 st15">OFF</text>
		<text transform="matrix(1 0 0 1 29.7937 187.4631)" class="st7 st8">NextComm:</text>
		<text transform="matrix(1 0 0 1 29.2485 198.2631)" class="st7 st8">Timeout: </text>
		<g>
			<text transform="matrix(1 0 0 1 371.2485 162.0732)" class="st14 st7 st15">GROUND</text>
			<text transform="matrix(1 0 0 1 371.2485 170.0732)" class="st14 st7 st15">FAULT</text>
		</g>
		<text transform="matrix(1 0 0 1 426.344 172.5226)" class="st7 st8">DVL</text>
		<text transform="matrix(1 0 0 1 437.3228 132.7498)" class="st7 st8">CTD</text>
		<text transform="matrix(1 0 0 1 437.3228 144.6496)" class="st7 st8">UBAT</text>
		<text transform="matrix(1 0 0 1 437.3228 156.5493)" class="st7 st8">FLOW</text>
		<text transform="matrix(1 0 0 1 325.5999 115.9386)" class="st7 st8">Last GPS</text>
		<text transform="matrix(1 0 0 1 175.7026 80.2956)" class="st7 st8">Sat comms</text>
		<text transform="matrix(1 0 0 1 177.8984 110.6771)" class="st7 st8">Cell comms</text>
		<text transform="matrix(1 0 0 1 30.2485 110.6771)" class="st7 st8">Log start:</text>
		<text transform="matrix(1 0 0 1 80.2151 149.6252)" class="st7 st8">Thruster</text>
		<path class="st18" d="M291.2,67.1c-1.1-6.5-4.5-16.1,6.4-20.9"/>
		<g>
			<g>
				<g>
					<path class="st19" d="M363,147c1.3-0.6,2.9,0,3.5,1.3s0,2.9-1.3,3.5s-2.9,0-3.5-1.3C361,149.2,361.6,147.6,363,147z"/>
				</g>
				<path class="st18" d="M364.2,149.3c-21.6,4.2-21.3,42.3-21.3,67.1"/>
			</g>
		</g>
		<path class="st18" d="M293.8,67c2.8,0,5.1,2.3,5.1,5.1s-2.1,5.1-4.9,5.1s-5.3-2.3-5.3-5.1S291,67,293.8,67z"/>
		<polygon class="st0" points="141.7,124.5 130.3,126.5 131,72.9 142.2,69.9 		"/>
	</g>
	<g transform="translate(119.3 -107.2)">
		<path class="st20" d="M307.8,285.7v2.2H76.2v-3.1l2.4,0.3c4.8-0.3,7.1-2.8,7.1-2.8l0.1,0.1c0,0,1.4,3.7,6.6,3.6
			c5.1-0.1,8.3-3.8,8.3-3.8s1.4,3.3,7.6,3.1s6.8-2.8,6.8-2.8s1.8,3.3,7.2,3.1c5.5-0.2,7.4-3.2,7.4-3.2s1.8,2.9,6.5,2.6
			c4.8-0.3,7.1-2.8,7.1-2.8s1.4,3.1,5.2,3.1c3.8,0,7.2-2.9,7.2-2.9s1.4,3.7,6.6,3.6c5.1-0.1,8.3-3.8,8.3-3.8s1.4,3.3,7.6,3.1
			s6.8-2.8,6.8-2.8s1.8,3.3,7.2,3.1c5.5-0.2,7.4-3.2,7.4-3.2s1.8,2.9,6.5,2.6c4.8-0.3,7.1-2.8,7.1-2.8l0.1,0.1c0,0,1.4,3.7,6.6,3.6
			c5.1-0.1,8.3-3.8,8.3-3.8s1.4,3.3,7.6,3.1c6.1-0.2,6.8-2.8,6.8-2.8s1.8,3.3,7.2,3.1c5.5-0.2,7.4-3.2,7.4-3.2s1.8,2.9,6.5,2.6
			c4.8-0.3,7.1-2,7.1-2s2.3,3.1,7.4,2.9s8.3-3.8,8.3-3.8s1.4,3.3,7.6,3.1c6.1-0.2,6.8-2.8,6.8-2.8s1.8,3.3,7.3,3.1"/>
	</g>
	<g id="Layer_2_00000166634407880194734030000015502369726448603821_">
		<rect x="433.6" y="218.6" class="st21" width="93.4" height="34.6"/>
		<rect x="320" y="216.5" class="st21" width="51.5" height="47.1"/>
		<rect x="261.5" y="10.6" class="st21" width="162.6" height="35.4"/>
		<rect x="427.5" y="13.9" class="st21" width="74.7" height="21.3"/>
		<rect x="406.6" y="96.8" class="st21" width="42.7" height="20.5"/>
		<text transform="matrix(1 0 0 1 16.5295 15.6242)" class="st19 st7 st16">LEGEND FOR AUV WIDGET</text>
		<text transform="matrix(1 0 0 1 440.2324 227.0779)" class="st19 st7 st8">Speed and Heading</text>
		<text transform="matrix(1 0 0 1 440.2324 237.8779)" class="st19 st7 st8">estimated from last</text>
		<text transform="matrix(1 0 0 1 440.2324 248.6779)" class="st19 st7 st8">two GPS fixes</text>
		<text transform="matrix(1 0 0 1 430.0916 21.4582)" class="st22"><tspan x="0" y="0" class="st19 st7 st15">when mission started</tspan><tspan x="0" y="10.8" class="st19 st7 st8">Mission name</tspan></text>
		<rect x="347.8" y="122.4" class="st21" width="63" height="10.8"/>
		<text transform="matrix(1 0 0 1 351.7761 130.84)" class="st19 st7 st8">Last GF scan</text>
		<rect x="111" y="29.8" class="st21" width="57" height="10.8"/>
		<text transform="matrix(1 0 0 1 113.9744 38.1928)" class="st19 st7 st8">Argo battery</text>
		<text transform="matrix(1 0 0 1 410.8889 105.1972)" class="st22"><tspan x="0" y="0" class="st19 st7 st8">UBAT on</tspan><tspan x="0" y="10.8" class="st19 st7 st8">flow OK</tspan></text>
		<text transform="matrix(1 0 0 1 273.0535 20.8892)" class="st19 st7 st8">Mission found in default list</text>
		<text transform="matrix(1 0 0 1 273.0535 32.3249)" class="st19 st7 st8">Mission not in default list  </text>
		<circle class="st12" cx="267.7" cy="17.6" r="2"/>
		<circle class="st23" cx="267.7" cy="29.6" r="2"/>
		<rect x="19.5" y="243.3" class="st21" width="212.5" height="39.1"/>
		<text transform="matrix(1 0 0 1 27.29 253.2123)" class="st19 st7 st8">Predicted next comm and Mission Timeout:</text>
		<circle class="st11" cx="30.7" cy="262.6" r="2"/>
		<circle class="st13" cx="95.3" cy="262.6" r="2"/>
		<circle class="st9" cx="162.9" cy="262.6" r="2"/>
		<rect x="329.8" y="252.1" class="st24" width="38.1" height="8.4"/>
		<rect x="329.8" y="239.9" class="st13" width="38.1" height="10"/>
		<rect x="329.8" y="228.4" class="st25" width="38.1" height="9.2"/>
		<text transform="matrix(1 0 0 1 323.4792 224.908)" class="st19 st7 st8">GF:   </text>
		<text transform="matrix(1 0 0 1 323.4792 236.108)" class="st19 st7 st8">    </text>
		<text transform="matrix(1 0 0 1 333.4792 236.108)" class="st19 st7 st26">        </text>
		<g>
			<g>
				<path class="st18" d="M481,85.4c-14.1-3.4-111,1.7-129.3-3.7"/>
				<g>
					<path class="st19" d="M476.7,162.4c1.1-1,2.7-0.9,3.7,0.2c1,1.1,0.9,2.7-0.2,3.7s-2.7,0.9-3.7-0.2
						C475.5,165.1,475.6,163.4,476.7,162.4z"/>
				</g>
				<g>
					<path class="st19" d="M347.9,79.7c1.1-1,2.7-0.9,3.7,0.2c1,1.1,0.9,2.7-0.2,3.7s-2.7,0.9-3.7-0.2
						C346.7,82.4,346.8,80.7,347.9,79.7z"/>
				</g>
			</g>
		</g>
		<g>
			<g>
				<path class="st18" d="M71.7,193.5c-1.5,3.9-11.1,44.2-14.2,49.4"/>
				<path class="st18" d="M182.5,179.4c-1.5,3.9,20.4,29.8,17.3,35"/>
				<path class="st18" d="M394.6,177.2c-1.5,3.9-1.7,9.5-4.8,14.7"/>
				<g>
					<path class="st19" d="M25,176.2c-0.2-1.4,0.8-2.8,2.2-3c1.4-0.2,2.8,0.8,3,2.2s-0.8,2.8-2.2,3C26.6,178.7,25.2,177.7,25,176.2z
						"/>
				</g>
				<g>
					<path class="st19" d="M69.1,193.5c-0.2-1.4,0.8-2.8,2.2-3c1.4-0.2,2.8,0.8,3,2.2s-0.8,2.8-2.2,3C70.7,196,69.3,195,69.1,193.5z
						"/>
				</g>
				<g>
					<path class="st19" d="M177.6,178.2c-0.2-1.4,0.8-2.8,2.2-3s2.8,0.8,3,2.2s-0.8,2.8-2.2,3C179.2,180.7,177.8,179.7,177.6,178.2z
						"/>
				</g>
				<g>
					<path class="st19" d="M393.1,177.1c-0.2-1.4,0.8-2.8,2.2-3s2.8,0.8,3,2.2c0.2,1.4-0.8,2.8-2.2,3
						C394.7,179.6,393.3,178.6,393.1,177.1z"/>
				</g>
			</g>
		</g>
		<g>
			<g>
				<g>
					<circle class="st19" cx="378.2" cy="66.7" r="2.6"/>
				</g>
				<path class="st18" d="M379.1,65.8c26,2.4,41.9-0.6,70.6-30.5"/>
			</g>
		</g>
		<g>
			<g>
				<path class="st18" d="M83.1,154.4c-7.6-5-13.5-12.9-13.8-18.4"/>
				<g>
					<path class="st19" d="M84.4,152.1c1.2,0.8,1.6,2.4,0.8,3.6c-0.8,1.2-2.4,1.6-3.6,0.8s-1.6-2.4-0.8-3.6
						C81.6,151.7,83.2,151.3,84.4,152.1z"/>
				</g>
			</g>
		</g>
		<g>
			<g>
				<path class="st18" d="M135.1,95.6c0.3-7.9,8.4-49.3,8.1-54.8"/>
			</g>
		</g>
		<g>
			<g>
				<path class="st18" d="M431.5,182.1c-9.7,3.1-11.5,34.3-19,41"/>
				<path class="st18" d="M479.8,163.8c-9.7,3.1-8.7,49-8.7,54.4"/>
				<g>
					<path class="st19" d="M429.8,180c1.2-0.8,2.8-0.6,3.7,0.6c0.8,1.2,0.6,2.8-0.6,3.7c-1.2,0.8-2.8,0.6-3.7-0.6
						C428.4,182.5,428.6,180.8,429.8,180z"/>
				</g>
			</g>
		</g>
		<g>
			<g>
				<path class="st18" d="M428.8,130.8c-16,4.4-7.7,75.4-17.9,93.1"/>
				<g>
					<path class="st19" d="M427.1,128.7c1.2-0.8,2.8-0.6,3.7,0.6c0.8,1.2,0.6,2.8-0.6,3.7c-1.2,0.8-2.8,0.6-3.7-0.6
						C425.7,131.2,425.9,129.5,427.1,128.7z"/>
				</g>
			</g>
		</g>
		<g>
			<g>
				<path class="st18" d="M59.5,152c-3.2,4.6,39.4,54.9,38.8,63.3"/>
				<circle class="st12" cx="293.3" cy="82.1" r="1.6"/>
				<text transform="matrix(1 0 0 1 31.2707 178.6135)" class="st14 st27 st15">60 min</text>
				<text transform="matrix(1 0 0 1 297.2707 84.6135)" class="st14 st27 st15">SCHEDULE:</text>
				<rect x="338.3" y="77.6" class="st23" width="8.2" height="8.2"/>
				<rect x="340.3" y="79.2" width="1.3" height="5"/>
				<rect x="343.3" y="79.2" width="1.3" height="5"/>
				<g>
					<path class="st19" d="M57,150.9c0.7-1.3,2.3-1.8,3.6-1.1s1.8,2.3,1.1,3.6s-2.3,1.8-3.6,1.1C56.9,153.8,56.4,152.2,57,150.9z"/>
				</g>
			</g>
		</g>
		<rect x="243.5" y="231.3" class="st21" width="64.9" height="51.6"/>
		<text transform="matrix(1 0 0 1 248.6965 260.0643)" class="st22"><tspan x="0" y="0" class="st19 st7 st8">Current draw </tspan><tspan x="9.7" y="8.4" class="st19 st7 st15">(avg last 3)</tspan></text>
		<text transform="matrix(1 0 0 1 255.7747 240.6156)" class="st22"><tspan x="0" y="0" class="st19 st7 st8">Projected </tspan><tspan x="3" y="8.4" class="st19 st7 st15">battery life</tspan></text>
		<rect x="344.9" y="192.7" class="st21" width="68" height="11.9"/>
		<text transform="matrix(1 0 0 1 349.5601 202.1627)" class="st19 st7 st8">Leak detected</text>
		<text transform="matrix(1 0 0 1 36.4543 265.3956)" class="st19 st7 st8">In the future</text>
		<text transform="matrix(1 0 0 1 100.6252 265.0052)" class="st19 st7 st8">in 9 mins or</text>
		<text transform="matrix(1 0 0 1 147.5254 265.0052)" class="st19 st7 st8"> </text>
		<text transform="matrix(1 0 0 1 100.6252 275.8052)" class="st19 st7 st8">&lt; 5 mins ago</text>
		<text transform="matrix(1 0 0 1 168.9319 265.3956)" class="st19 st7 st8">In the past</text>
		<text transform="matrix(1 0 0 1 168.9319 276.1956)" class="st19 st7 st8">or no default</text>
		<rect x="173.9" y="60.1" class="st21" width="78.1" height="11.9"/>
		<rect x="164.9" y="86.8" class="st21" width="88.3" height="11.9"/>
		<text transform="matrix(1 0 0 1 179.5007 68.5322)" class="st19 st7 st8">Last sat comms </text>
		<text transform="matrix(1 0 0 1 170.5625 95.3094)" class="st19 st7 st8">Last cell comms </text>
		<rect x="8.1" y="89.5" class="st21" width="92.3" height="13.8"/>
		<text transform="matrix(1 0 0 1 12.6936 99.7689)" class="st19 st7 st8">Log start time &amp; age</text>
		<rect x="14.3" y="26.9" class="st21" width="92.3" height="21.7"/>
		<text transform="matrix(1 0 0 1 18.8701 37.1573)" class="st22"><tspan x="0" y="0" class="st19 st7 st8">Last 8h of depth </tspan><tspan x="0" y="8.4" class="st19 st7 st15">(autoscaled to 40m bins)</tspan></text>
		<rect x="293.5" y="92.8" class="st21" width="59.6" height="11.9"/>
		<text transform="matrix(1 0 0 1 298.5879 101.7118)" class="st19 st7 st8">Last GPS fix</text>
		<rect x="283.7" y="125.7" class="st21" width="59.6" height="24.8"/>
		<text transform="matrix(1 0 0 1 286.218 135.1868)" class="st19 st7 st8">Battery level</text>
		<text transform="matrix(1 0 0 1 286.218 145.9868)" class="st19 st7 st8">13.5 to 16.5v</text>
		<rect x="153.9" y="135.7" class="st21" width="51.6" height="21.4"/>
		<text transform="matrix(1 0 0 1 157.5271 145.2795)" class="st22"><tspan x="0" y="0" class="st19 st7 st15">Black spots </tspan><tspan x="0" y="8.4" class="st19 st7 st15">= bad battery</tspan></text>
		<rect x="20" y="123.1" class="st21" width="85.8" height="13.9"/>
		<rect x="75.1" y="215.7" class="st21" width="85.8" height="13.9"/>
		<text transform="matrix(1 0 0 1 22.4912 132.7103)" class="st19 st7 st8">Commanded speed</text>
		<text transform="matrix(1 0 0 1 75.5691 225.2371)" class="st19 st7 st8">Thruster Servo error</text>
		<path class="st18" d="M26.1,176.9c-14.4,2.4-32.2,30.2-9.6,43.2"/>
		<rect x="5.5" y="216.1" class="st21" width="50.2" height="22.4"/>
		<text transform="matrix(1 0 0 1 7.7085 224.8735)" class="st22"><tspan x="0" y="0" class="st19 st7 st8">NextComm </tspan><tspan x="0" y="10.8" class="st19 st7 st8">interval</tspan></text>
		<rect x="279.6" y="191.1" class="st21" width="58.4" height="13.9"/>
		<text transform="matrix(1 0 0 1 282.0352 201.2767)" class="st19 st7 st8">Critical error</text>
		<rect x="168.2" y="214.7" class="st21" width="95.6" height="11.9"/>
		<text transform="matrix(1 0 0 1 181.7498 223.6075)" class="st19 st7 st8">OK or      </text>
		<rect x="171.4" y="216.4" class="st11" width="8.9" height="8.2"/>
		<rect x="208.9" y="216.4" class="st9" width="8.9" height="8.2"/>
		<text transform="matrix(1 0 0 1 222.2544 223.6072)" class="st19 st7 st8">dropped</text>
		<text transform="matrix(1 0 0 1 265.5098 42.0193)" class="st19 st7 st15">(mission timeout, nextcomm, speed not reliable)</text>
		<text transform="matrix(1 0 0 1 333.271 235.5338)" class="st19 st7 st26">ok </text>
		<text transform="matrix(1 0 0 1 331.7808 247.3061)" class="st19 st7 st26">0.08 - 0.2</text>
		<rect x="255.8" y="271.5" class="st13" width="39.1" height="10"/>
		<text transform="matrix(1 0 0 1 259.7695 278.9554)" class="st19 st7 st26">1.5 to 2.1</text>
		<text transform="matrix(1 0 0 1 331.7786 258.6566)" class="st19 st7 st26">high &gt; .2</text>
		<rect x="385.1" y="222.5" class="st21" width="39.1" height="47.1"/>
		<rect x="391.9" y="258.1" class="st24" width="28.6" height="8.4"/>
		<rect x="391.9" y="245.9" class="st13" width="28.6" height="10"/>
		<rect x="391.9" y="234.4" class="st25" width="28.6" height="9.2"/>
		<text transform="matrix(1 0 0 1 388.5994 230.908)" class="st22"><tspan x="0" y="0" class="st19 st7 st15">DVL+CTD</tspan><tspan x="31.8" y="0" class="st19 st7 st8">   </tspan></text>
		<text transform="matrix(1 0 0 1 388.5994 242.108)" class="st19 st7 st8">    </text>
		<text transform="matrix(1 0 0 1 398.5994 242.108)" class="st19 st7 st26">        </text>
		<text transform="matrix(1 0 0 1 397.4087 241.5338)" class="st19 st7 st26">On</text>
		<text transform="matrix(1 0 0 1 397.4087 253.3061)" class="st19 st7 st26">Off</text>
		<text transform="matrix(1 0 0 1 397.4084 265.1534)" class="st19 st7 st26">Error</text>
		<rect x="481.3" y="67.6" class="st21" width="39.1" height="36.1"/>
		<rect x="485.1" y="91.2" class="st24" width="31.6" height="8.4"/>
		<rect x="485.1" y="79.5" class="st25" width="31.6" height="9.2"/>
		<text transform="matrix(1 0 0 1 484.8579 76.073)" class="st19 st7 st15">Scheduler</text>
		<text transform="matrix(1 0 0 1 484.8579 87.273)" class="st19 st7 st8">    </text>
		<text transform="matrix(1 0 0 1 494.8579 87.273)" class="st19 st7 st26">        </text>
		<text transform="matrix(1 0 0 1 486.6672 86.6988)" class="st19 st7 st26">Going</text>
		<text transform="matrix(1 0 0 1 486.667 98.3184)" class="st19 st7 st26">Paused</text>
	</g>
	<rect x="250.5" y="138.9" class="st28" width="5" height="22"/>
	<rect x="251" y="148.7" class="st29" width="4" height="12"/>
	<g>
		<path class="st19" d="M254.8,152.8c1.2-0.9,2.8-0.6,3.7,0.6c0.9,1.2,0.6,2.8-0.6,3.7s-2.8,0.6-3.7-0.6S253.6,153.7,254.8,152.8z"
			/>
	</g>
	<path class="st18" d="M256.1,155.4c3.6,13.5,39.7,52.1,26.9,76.2"/>
	<g>
		<g>
			<path class="st18" d="M143.8,132.9c2.6-31.6,19.2-65,33.3-83.6"/>
			<rect x="133.5" y="103.5" class="st28" width="5.4" height="9.4"/>
			<rect x="134.9" y="102.5" class="st28" width="2.4" height="1"/>
			<rect x="133.7" y="103.5" class="st12" width="5" height="9"/>
			<g>
				<path class="st19" d="M142.1,130.8c1.2-0.8,2.8-0.6,3.7,0.6c0.8,1.2,0.6,2.8-0.6,3.7c-1.2,0.8-2.8,0.6-3.7-0.6
					C140.7,133.3,140.9,131.6,142.1,130.8z"/>
			</g>
		</g>
	</g>
	<rect x="171.8" y="7.2" class="st21" width="78.7" height="41.1"/>
	<text transform="matrix(1 0 0 1 179.0442 15.8659)" class="st19 st7 st15">Tailcone dot errors</text>
	<text transform="matrix(1 0 0 1 208.4143 24.853)" class="st19 st7 st26">Hardware</text>
	<text transform="matrix(1 0 0 1 208.4143 34.8548)" class="st19 st7 st26">Software</text>
	<text transform="matrix(1 0 0 1 208.4141 44.8569)" class="st19 st7 st26">Overload</text>
	<text transform="matrix(1 0 0 1 177.374 25.873)" class="st7 st8">HW</text>
	<text transform="matrix(1 0 0 1 177.374 35.873)" class="st7 st8">SW</text>
	<text transform="matrix(1 0 0 1 177.374 45.873)" class="st7 st8">OT</text>
	<circle class="st0" cx="199.3" cy="22.6" r="3.6"/>
	<circle class="st0" cx="199.3" cy="32.7" r="3.6"/>
	<circle class="st0" cx="199.3" cy="42.9" r="3.6"/>
	<text transform="matrix(1 0 0 1 341.7208 67.9275)" class="st14 st27 st17">1h 55m ago</text>
	<text transform="matrix(1 0 0 1 259.2365 144.1778)" class="st30 st27 st15">15</text>
	<text transform="matrix(1 0 0 1 259.2365 149.1778)" class="st30 st27 st17">hours</text>
	<text transform="matrix(1 0 0 1 259.2365 156.1778)" class="st14 st27 st15">0.8</text>
	<text transform="matrix(1 0 0 1 259.2365 161.1778)" class="st14 st27 st17">amps</text>
	<line class="st31" x1="45.9" y1="55" x2="45.9" y2="75"/>
	<line class="st31" x1="75.9" y1="55" x2="75.9" y2="75"/>
	<line class="st31" x1="105.9" y1="55" x2="105.9" y2="75"/>
	<line class="st31" x1="15.9" y1="60" x2="135.9" y2="60"/>
	<line class="st31" x1="15.9" y1="65" x2="135.9" y2="65"/>
	<line class="st31" x1="15.9" y1="70" x2="135.9" y2="70"/>
	<line class="st31" x1="30.9" y1="55" x2="30.9" y2="75"/>
	<line class="st31" x1="60.9" y1="55" x2="60.9" y2="75"/>
	<line class="st31" x1="90.9" y1="55" x2="90.9" y2="75"/>
	<line class="st31" x1="120.9" y1="55" x2="120.9" y2="75"/>
	<text transform="matrix(1 0 0 1 16.8941 74.0469)" class="st14 st27 st17">40m</text>
	<text transform="matrix(1 0 0 1 137.8941 59.0469)" class="st14 st27 st17">10:07</text>
	<text transform="matrix(1 0 0 1 137.8941 65.0469)" class="st14 st27 st17">26m ago</text>
	<text transform="matrix(1 0 0 1 43.8941 80.547)" class="st14 st27 st17">6h</text>
	<text transform="matrix(1 0 0 1 73.8941 80.547)" class="st14 st27 st17">4h</text>
	<text transform="matrix(1 0 0 1 103.8941 80.547)" class="st14 st27 st17">2h</text>
	<text transform="matrix(1 0 0 1 14.8941 80.547)" class="st14 st27 st17">8h</text>
	<circle class="st12" cx="156.9" cy="57" r="2"/>
	<polygon class="st32" points="23,54.4 23,67.4 23.3,56.3 23.4,56.5 23.5,60.6 23.8,70.3 23.9,67.6 24.2,57.4 24.3,56.1 24.6,64.4 
		24.7,70.6 24.8,67.9 25.2,57.8 25.2,56.3 25.3,58.8 25.6,70.4 25.7,69.7 26,62 26.2,55.3 26.4,61 26.6,70.6 26.7,69.3 26.9,63.4 
		27.2,55.5 28.5,55.2 28.9,56 29.1,68.2 29.2,70.9 29.3,68.7 29.5,61.3 29.7,56.2 29.8,58.4 30.2,69.7 30.2,69.6 30.3,67.3 
		30.6,55.9 30.7,56.1 30.8,59.9 31,64.8 31.2,70.3 31.3,67.4 31.6,56.1 31.7,55.2 31.8,56.6 32,66.4 32.2,70.7 32.2,67.9 32.6,57.1 
		32.6,56.2 32.8,60.8 33.1,70.5 33.2,67.4 33.5,55.7 33.7,56.1 33.8,62.4 34.1,70.7 34.2,67.6 34.5,56.6 34.6,55.7 34.6,57.5 
		35.1,70.4 35.2,67.3 35.5,56.5 35.5,55.8 35.6,58.1 35.8,64.5 36,70.2 36.4,56.6 36.5,55.4 36.8,64.4 37,70.3 37.1,66.9 37.4,56.8 
		37.4,55.7 37.7,64.7 37.9,70.5 38,67.3 38.3,57 38.4,55.5 38.6,64.1 38.8,70.3 38.9,67.3 39.3,56.7 39.3,56.2 39.6,65.9 39.7,70.7 
		40.1,59.4 40.2,56.2 40.5,64 40.6,69.1 40.7,70.4 41,60 41.2,55.2 41.4,63.8 41.6,69.6 41.6,70.1 42,60.3 42.2,55.2 42.4,56 
		42.7,70 43,63.2 43.2,55.5 43.3,58.1 43.5,65.1 43.6,69.3 43.7,70.8 44.1,59.6 44.2,55.2 44.7,55.2 45.2,56 45.5,65.8 45.6,70.8 
		45.7,67.5 45.9,61.1 46.1,57.1 46.1,56.4 46.3,60.9 46.4,65.3 46.5,70.7 46.7,67.7 47,56.9 47,56.2 47.3,64.5 47.4,69.2 47.5,70.3 
		47.6,68 47.9,59.2 48,55.2 48.1,56.4 48.3,65.5 48.5,71 48.9,59.2 49,55.8 49.3,64.5 49.4,68 49.5,70.5 49.6,67.9 49.9,58.3 
		50,56.2 50.2,64 50.3,67.9 50.4,70.5 50.9,57.3 50.9,55.8 51,58.3 51.3,67.9 51.4,70.5 51.8,56.8 51.9,55.9 52.1,61.6 52.3,70.4 
		52.8,57.1 52.8,55.6 52.9,58.1 53.3,70.8 53.7,56.8 53.8,55.7 53.8,58 54.2,70.6 54.7,56.5 54.7,55.9 54.9,61.8 55.2,70.4 
		55.6,56.7 55.7,55.7 55.7,57.9 56.1,70.2 56.5,56.5 56.6,56.2 56.7,61.1 57,70.4 57.5,55.7 57.7,61.2 58,70.6 58.4,56.8 58.4,56 
		58.7,63.7 58.8,66.9 58.9,70.4 59,67.4 59.3,56.2 59.4,56.9 59.5,61.5 59.8,70.2 59.9,67.1 60.2,57.1 60.3,55.2 60.5,56 60.6,55.2 
		61.3,56 61.5,63.9 61.5,66.8 61.6,70.7 61.7,68.2 62.1,58.1 62.2,55.2 62.4,60.4 62.5,65.8 62.6,70.1 63,58 63.2,55.2 63.3,56.1 
		63.4,60.2 63.6,66.3 63.7,70.1 64.1,57.6 64.2,56.4 64.4,64 64.6,70.6 65.1,56.8 65.1,56 65.3,61.5 65.6,70.6 65.7,67.7 66,56 
		66.3,64.5 66.5,70.6 66.6,67.4 67,55.8 67.2,63.5 67.4,70.4 67.5,67.2 67.9,55.9 67.9,56.5 68.1,61.4 68.3,70.4 68.4,67.4 
		68.8,55.5 69,61.3 69.3,70.5 69.4,67.5 69.8,55.2 70,59.7 70.3,70 70.7,55.7 70.9,60.5 71.2,70.5 71.7,55.9 71.9,61.5 72.1,70.5 
		72.2,67.5 72.6,55.2 72.8,56.3 73,66 73.1,70.1 73.5,57.9 73.6,55.8 73.8,60.5 74.1,70.3 74.2,67 74.5,55.7 74.6,56.2 74.8,61 
		75,69.3 75.1,70.7 75.1,68.2 75.5,56.6 75.6,56.2 75.7,57.7 76,70.6 76.5,56.2 76.6,55.2 77.7,55.2 78.1,56 78.4,70.8 78.5,68.2 
		78.9,55.5 79,57.7 79.2,64.7 79.4,70.5 79.8,56.4 79.9,56.8 80.1,62.9 80.3,70.7 80.8,56 80.8,56.4 81,60.2 81.3,70.5 81.7,55.9 
		81.9,59.8 82.2,70.7 82.7,56.2 82.9,64.5 83.1,70.6 83.5,58.5 83.6,55.4 83.8,60.3 84.1,70.8 84.2,67.8 84.5,59.2 84.6,55.7 
		84.7,60.6 84.9,66.1 85,70.7 85.2,67.6 85.4,59.4 85.5,55.7 85.7,60 85.8,64.8 86,70.2 86.4,57.9 86.5,55.8 86.7,59.9 87,70.3 
		87.4,56.5 87.5,55.9 87.6,60.2 87.9,70.8 88,68 88.4,55.5 88.6,60.8 88.9,70.7 89.2,60.7 89.4,56.2 89.6,61.6 89.9,70.3 90.3,55.9 
		90.4,59.4 90.6,65.9 90.8,70.4 91.1,61.7 91.2,56.1 91.4,59.3 91.7,70.4 92,62 92.2,56.3 92.3,59.8 92.5,65.7 92.7,70.6 92.8,67.8 
		93.1,55.3 93.6,55.2 93.6,55.2 94.3,55.9 94.5,64.9 94.6,65.9 94.7,63.6 95,55.3 95.2,61.5 95.4,65.6 95.4,62.9 95.7,55.9 
		95.8,59.2 95.9,62.5 96,65.8 96.1,63 96.3,55.7 96.7,65.3 96.8,62.7 97,55.7 97.2,62.3 97.3,65.4 97.4,62.8 97.7,55.9 98,64.6 
		98,65.4 98.1,62.9 98.3,56 98.5,61.9 98.7,65.8 98.8,62.9 99,55.7 99.2,60.2 99.3,65.3 99.4,62.5 99.7,55.3 99.8,55.6 100.8,55.2 
		101,56.1 101.3,65.3 101.6,55.9 102,65.4 102.1,60 102.3,56.3 102.3,56.6 102.4,59.2 102.6,65.7 102.7,62.8 103,55.9 103.3,65.6 
		103.5,60.6 103.6,55.7 103.7,59 103.8,58.9 104,65.6 104.3,55.7 104.4,58.8 104.5,60.4 104.6,65.4 104.7,63 104.9,56.6 105,56.1 
		105.1,58.8 105.3,65.6 105.4,62.9 105.6,55.4 105.7,58.1 106,65.3 106.2,59.4 106.3,55.3 107.4,55.2 107.4,55.5 107.9,60 113.9,60 
		113.9,54.4 	"/>
	<polyline class="st23" points="113.7,54.4 113.6,55.5 114.1,60 135.9,60 135.9,54.4 	"/>
	<g transform="rotate (-90,604.94,259.74), rotate(249,605,259.74)">
		<rect x="482.2" y="147.5" class="st33" width="11.7" height="7"/>
		<g>
			<polygon class="st33" points="506.3,151 488.9,158.1 493,151 488.9,143.9 			"/>
		</g>
	</g>
	<text transform="matrix(1 0 0 1 486.0615 153.5515)" class="st27 st15">249°</text>
	<text transform="matrix(1 0 0 1 480.0615 167.572)" class="st27 st8">2.7km/hr</text>
	<text transform="matrix(1 0 0 1 468.0615 113.2515)" class="st14 st27 st17">Arrive at M1</text>
	<text transform="matrix(1 0 0 1 480.0615 184.2515)" class="st14 st27 st17">3.1km in 1.1h</text>
	<text transform="matrix(1 0 0 1 469.0615 121.2515)" class="st27 st15">21:04 - in 4h 9m</text>
	<text transform="matrix(1 0 0 1 470.0615 129.2515)" class="st14 st27 st17">13.5km from last fix</text>
	<text transform="matrix(1 0 0 1 470.0615 136.2515)" class="st14 st27 st17">11.4km from est.veh</text>
	<text transform="matrix(1 0 0 1 480.0615 177.2515)" class="st14 st27 st17">reckoned</text>
	<text transform="matrix(1 0 0 1 237.6648 190.4066)" class="st30 st27 st26">CRITICAL: Communications Fault: R...</text>
	<text transform="matrix(1 0 0 1 239.6648 197.4066)" class="st14 st27 st15">1h 39m ago</text>
	<text transform="matrix(1 0 0 1 315.2639 60.0958)" class="st22"><tspan x="0" y="0" class="st34 st27 st15">Note created with       starting with </tspan><tspan x="109.5" y="0" class="st34 st35 st15">#sticky</tspan><tspan x="138.9" y="0" class="st34 st27 st15"> or </tspan><tspan x="149.2" y="0" class="st34 st35 st15">#note </tspan></text>
	<text transform="matrix(1 0 0 1 493.2639 61.0958)" class="st14 st27 st17">1h 22m ago</text>
	<text transform="matrix(1 0 0 1 494.2639 56.0958)" class="st14 st27 st17">#note</text>
	<rect x="457.8" y="134.6" class="st21" width="79.1" height="10.8"/>
	<text transform="matrix(1 0 0 1 462.2498 142.8151)" class="st19 st7 st8">Projected arrival</text>
	<g>
		<path class="st19" d="M137.5,95.1c1.2,0.8,1.6,2.4,0.8,3.6c-0.8,1.2-2.4,1.6-3.6,0.8s-1.6-2.4-0.8-3.6
			C134.7,94.7,136.3,94.3,137.5,95.1z"/>
	</g>
	<g>
		<path class="st36" d="M382,59.9c0,1.4-1.2,2.6-2.6,2.6h-4c-1.4,0-2.6-1.2-2.6-2.6v-4c0-1.4,1.2-2.6,2.6-2.6h4
			c1.4,0,2.6,1.2,2.6,2.6V59.9z"/>
		<path class="st37" d="M377.5,55c-1.9,0-3.5,1.2-3.5,2.8c0,0.7,0.3,1.3,0.8,1.7c-0.3,0.5-0.3,0.9-0.8,1.3c0.7,0.1,1.3-0.2,1.9-0.5
			c0.5,0.2,1,0.3,1.5,0.3c1.9,0,3.5-1.2,3.5-2.8S379.4,55,377.5,55z"/>
	</g>
</g>
</svg>
